<svg width="42" height="41" viewBox="0 0 42 41" fill="none" xmlns="http://www.w3.org/2000/svg">
<path d="M9 6.5C9 5.70435 9.31607 4.94129 9.87868 4.37868C10.4413 3.81607 11.2044 3.5 12 3.5C12.7956 3.5 13.5587 3.81607 14.1213 4.37868C14.6839 4.94129 15 5.70435 15 6.5C15 7.29565 14.6839 8.05871 14.1213 8.62132C13.5587 9.18393 12.7956 9.5 12 9.5C11.2044 9.5 10.4413 9.18393 9.87868 8.62132C9.31607 8.05871 9 7.29565 9 6.5ZM12 0.5C10.4087 0.5 8.88258 1.13214 7.75736 2.25736C6.63214 3.38258 6 4.9087 6 6.5C6 8.0913 6.63214 9.61742 7.75736 10.7426C8.88258 11.8679 10.4087 12.5 12 12.5C13.5913 12.5 15.1174 11.8679 16.2426 10.7426C17.3679 9.61742 18 8.0913 18 6.5C18 4.9087 17.3679 3.38258 16.2426 2.25736C15.1174 1.13214 13.5913 0.5 12 0.5ZM3.75 15.5C2.75544 15.5 1.80161 15.8951 1.09835 16.5984C0.395088 17.3016 0 18.2554 0 19.25V19.625C0 20.0375 -1.78814e-07 22.3925 1.581 24.665C2.7165 26.297 4.5555 27.7355 7.4295 28.475C8.00893 27.3674 8.91841 26.4673 10.032 25.8995C6.537 25.523 4.8765 24.149 4.044 22.952C3.37399 21.971 3.01061 20.813 3 19.625V19.25C3 19.0511 3.07902 18.8603 3.21967 18.7197C3.36032 18.579 3.55109 18.5 3.75 18.5H12.75C12.75 17.441 12.9495 16.43 13.3125 15.5H3.75ZM40.419 24.665C39.2835 26.297 37.4445 27.7355 34.5705 28.475C33.991 27.3674 33.0815 26.4674 31.968 25.8995C35.463 25.523 37.1235 24.149 37.956 22.952C38.626 21.971 38.9894 20.813 39 19.625V19.25C39 19.0511 38.921 18.8603 38.7803 18.7197C38.6397 18.579 38.4489 18.5 38.25 18.5H29.25C29.25 17.441 29.0505 16.43 28.6875 15.5H38.25C39.2446 15.5 40.1984 15.8951 40.9016 16.5984C41.6049 17.3016 42 18.2554 42 19.25V19.625C42 20.0375 42 22.3925 40.419 24.665ZM27 6.5C27 5.70435 27.3161 4.94129 27.8787 4.37868C28.4413 3.81607 29.2044 3.5 30 3.5C30.7956 3.5 31.5587 3.81607 32.1213 4.37868C32.6839 4.94129 33 5.70435 33 6.5C33 7.29565 32.6839 8.05871 32.1213 8.62132C31.5587 9.18393 30.7956 9.5 30 9.5C29.2044 9.5 28.4413 9.18393 27.8787 8.62132C27.3161 8.05871 27 7.29565 27 6.5ZM30 0.5C28.4087 0.5 26.8826 1.13214 25.7574 2.25736C24.6321 3.38258 24 4.9087 24 6.5C24 8.0913 24.6321 9.61742 25.7574 10.7426C26.8826 11.8679 28.4087 12.5 30 12.5C31.5913 12.5 33.1174 11.8679 34.2426 10.7426C35.3679 9.61742 36 8.0913 36 6.5C36 4.9087 35.3679 3.38258 34.2426 2.25736C33.1174 1.13214 31.5913 0.5 30 0.5ZM21 15.5C20.2044 15.5 19.4413 15.8161 18.8787 16.3787C18.3161 16.9413 18 17.7044 18 18.5C18 19.2956 18.3161 20.0587 18.8787 20.6213C19.4413 21.1839 20.2044 21.5 21 21.5C21.7956 21.5 22.5587 21.1839 23.1213 20.6213C23.6839 20.0587 24 19.2956 24 18.5C24 17.7044 23.6839 16.9413 23.1213 16.3787C22.5587 15.8161 21.7956 15.5 21 15.5ZM15 18.5C15 16.9087 15.6321 15.3826 16.7574 14.2574C17.8826 13.1321 19.4087 12.5 21 12.5C22.5913 12.5 24.1174 13.1321 25.2426 14.2574C26.3679 15.3826 27 16.9087 27 18.5C27 20.0913 26.3679 21.6174 25.2426 22.7426C24.1174 23.8679 22.5913 24.5 21 24.5C19.4087 24.5 17.8826 23.8679 16.7574 22.7426C15.6321 21.6174 15 20.0913 15 18.5ZM9 31.25C9 30.2554 9.39509 29.3016 10.0983 28.5984C10.8016 27.8951 11.7554 27.5 12.75 27.5H29.25C29.7425 27.5 30.2301 27.597 30.6851 27.7855C31.14 27.9739 31.5534 28.2501 31.9016 28.5984C32.2499 28.9466 32.5261 29.36 32.7145 29.8149C32.903 30.2699 33 30.7575 33 31.25V31.625C33 32.0375 33 34.3925 31.419 36.665C29.769 39.0365 26.634 41 21 41C15.3675 41 12.231 39.0365 10.581 36.665C9 34.3925 9 32.039 9 31.625V31.25ZM12.75 30.5C12.5511 30.5 12.3603 30.579 12.2197 30.7197C12.079 30.8603 12 31.0511 12 31.25V31.625C12 31.8725 12.0015 33.455 13.044 34.952C14.019 36.3545 16.134 38 21 38C25.8675 38 27.981 36.3545 28.956 34.952C29.626 33.971 29.9894 32.813 30 31.625V31.25C30 31.0511 29.921 30.8603 29.7803 30.7197C29.6397 30.579 29.4489 30.5 29.25 30.5H12.75Z" fill="#EB2A23"/>
</svg>
