<svg width="290" height="100" viewBox="0 0 290 100" fill="none" xmlns="http://www.w3.org/2000/svg">
<g filter="url(#filter0_b_263_2117)">
<g clip-path="url(#clip0_263_2117)">
<mask id="mask0_263_2117" style="mask-type:luminance" maskUnits="userSpaceOnUse" x="26" y="22" width="238" height="56">
<path d="M263.916 22H26V78H263.916V22Z" fill="white"/>
</mask>
<g mask="url(#mask0_263_2117)">
<path d="M104.121 54.55C104.835 54.55 105.367 54.354 105.717 53.962C106.067 53.57 106.235 52.996 106.235 52.24H111.121L111.149 52.338C111.191 54.2 110.547 55.726 109.203 56.902C107.873 58.078 106.165 58.666 104.093 58.666C101.503 58.666 99.4867 57.854 98.0867 56.244C96.6727 54.634 95.9727 52.534 95.9727 49.958V49.594C95.9727 47.032 96.6727 44.932 98.0727 43.322C99.4727 41.698 101.461 40.886 104.037 40.886C106.207 40.886 107.943 41.488 109.245 42.706C110.547 43.924 111.177 45.576 111.135 47.662L111.107 47.76H106.221C106.221 46.948 106.039 46.29 105.689 45.772C105.325 45.254 104.793 45.002 104.065 45.002C103.057 45.002 102.343 45.422 101.937 46.248C101.531 47.088 101.321 48.194 101.321 49.594V49.958C101.321 51.4 101.531 52.52 101.937 53.332C102.343 54.144 103.071 54.55 104.107 54.55H104.121Z" fill="#211B2E"/>
<path d="M123.034 45.912H121.088C120.472 45.898 119.968 45.996 119.59 46.206C119.198 46.416 118.904 46.71 118.722 47.088V58.33H113.374V41.194H118.414L118.61 43.714C118.974 42.818 119.45 42.118 120.038 41.628C120.626 41.138 121.326 40.886 122.11 40.886C122.362 40.886 122.628 40.9 122.88 40.942C123.146 40.984 123.37 41.026 123.58 41.082L123.062 45.926L123.034 45.912Z" fill="#211B2E"/>
<path d="M133.199 50.784V50.91H133.311L136.139 41.208H141.837L135.019 60.892C134.487 62.152 133.815 63.202 132.975 64.028C132.135 64.854 130.819 65.26 128.999 65.26C128.537 65.26 128.159 65.232 127.865 65.176C127.571 65.12 127.109 65.008 126.465 64.854L127.109 61.046C127.263 61.074 127.361 61.102 127.445 61.116C127.515 61.13 127.613 61.144 127.725 61.144C128.565 61.144 129.181 61.018 129.573 60.766C129.965 60.514 130.259 60.136 130.441 59.646L130.875 58.526L124.953 41.208H130.637L133.185 50.784H133.199Z" fill="#211B2E"/>
<path d="M159.098 50.126C159.098 52.702 158.524 54.774 157.362 56.328C156.2 57.882 154.562 58.666 152.448 58.666C151.622 58.666 150.894 58.512 150.25 58.19C149.606 57.868 149.06 57.42 148.584 56.818V64.924H143.236V41.194H148.234L148.43 43.084C148.92 42.384 149.48 41.838 150.138 41.46C150.796 41.082 151.552 40.886 152.42 40.886C154.548 40.886 156.186 41.698 157.348 43.336C158.51 44.974 159.098 47.13 159.098 49.79V50.126ZM153.764 49.79C153.764 48.348 153.554 47.186 153.134 46.304C152.714 45.422 152.042 44.988 151.104 44.988C150.502 44.988 149.998 45.1 149.578 45.324C149.158 45.548 148.836 45.87 148.584 46.29V53.444C148.836 53.808 149.172 54.088 149.592 54.27C150.012 54.452 150.53 54.536 151.132 54.536C152.07 54.536 152.742 54.144 153.148 53.374C153.554 52.604 153.764 51.512 153.764 50.126V49.79Z" fill="#211B2E"/>
<path d="M167.793 36.938V41.194H170.691V44.904H167.793V52.758C167.793 53.374 167.919 53.808 168.171 54.074C168.423 54.34 168.759 54.48 169.179 54.48C169.515 54.48 169.781 54.48 169.977 54.452C170.173 54.438 170.425 54.382 170.733 54.326L171.111 58.288C170.523 58.428 169.991 58.526 169.515 58.582C169.039 58.638 168.479 58.666 167.835 58.666C166.071 58.666 164.741 58.19 163.831 57.252C162.921 56.314 162.473 54.83 162.473 52.786V44.904H160.065V41.194H162.473V36.938H167.807H167.793Z" fill="#211B2E"/>
<path d="M172.021 49.608C172.021 47.032 172.749 44.932 174.205 43.308C175.661 41.684 177.691 40.872 180.295 40.872C182.899 40.872 184.943 41.684 186.413 43.308C187.869 44.932 188.597 47.032 188.597 49.608V49.944C188.597 52.534 187.869 54.634 186.413 56.244C184.957 57.854 182.927 58.666 180.337 58.666C177.747 58.666 175.661 57.854 174.205 56.244C172.749 54.634 172.021 52.534 172.021 49.944V49.608ZM177.369 49.944C177.369 51.386 177.593 52.506 178.041 53.318C178.489 54.13 179.259 54.55 180.323 54.55C181.387 54.55 182.115 54.144 182.577 53.318C183.025 52.492 183.263 51.372 183.263 49.944V49.608C183.263 48.208 183.039 47.102 182.577 46.262C182.129 45.422 181.359 45.002 180.295 45.002C179.231 45.002 178.489 45.422 178.041 46.262C177.593 47.102 177.369 48.222 177.369 49.608V49.944Z" fill="#211B2E"/>
<path d="M195.877 41.194L196.087 43.602C196.647 42.748 197.333 42.076 198.159 41.6C198.985 41.124 199.895 40.886 200.917 40.886C202.597 40.886 203.913 41.432 204.851 42.51C205.789 43.602 206.265 45.324 206.265 47.704V58.33H200.917V47.69C200.917 46.71 200.707 46.01 200.301 45.604C199.895 45.198 199.293 44.988 198.509 44.988C198.019 44.988 197.571 45.072 197.193 45.254C196.801 45.436 196.479 45.688 196.199 45.996V58.316H190.865V41.194H195.877Z" fill="#211B2E"/>
<path d="M217.003 58.666C214.483 58.666 212.467 57.868 210.969 56.286C209.471 54.704 208.715 52.716 208.715 50.336V49.734C208.715 47.13 209.401 45.002 210.759 43.35C212.131 41.698 214.077 40.872 216.625 40.886C218.949 40.886 220.769 41.586 222.085 42.972C223.401 44.372 224.059 46.248 224.059 48.642V51.442H214.273L214.245 51.54C214.357 52.422 214.721 53.136 215.323 53.696C215.925 54.256 216.723 54.55 217.731 54.55C218.739 54.55 219.551 54.466 220.167 54.312C220.783 54.158 221.539 53.878 222.477 53.486L223.737 56.748C222.981 57.294 222.015 57.756 220.825 58.12C219.635 58.484 218.361 58.666 217.003 58.666ZM216.625 45.002C215.855 45.002 215.281 45.282 214.889 45.828C214.497 46.374 214.273 47.116 214.189 48.026L214.231 48.11H218.837V47.704C218.837 46.836 218.655 46.178 218.305 45.716C217.941 45.254 217.381 45.016 216.625 45.016V45.002Z" fill="#211B2E"/>
<path d="M241.026 51.134H241.124L242.972 41.208H247.914L243.896 58.344H239.374L236.588 49.258H236.49L233.69 58.344H229.182L225.15 41.208H230.092L231.982 51.218H232.08L234.866 41.208H238.24L241.054 51.134H241.026Z" fill="#211B2E"/>
<path d="M258.765 53.514C258.765 53.094 258.527 52.716 258.051 52.38C257.575 52.044 256.693 51.75 255.433 51.484C253.431 51.092 251.933 50.49 250.925 49.664C249.917 48.838 249.399 47.718 249.399 46.29C249.399 44.778 250.029 43.504 251.303 42.454C252.563 41.404 254.285 40.872 256.455 40.872C258.737 40.872 260.543 41.376 261.901 42.398C263.245 43.42 263.889 44.736 263.833 46.346L263.805 46.444H258.611C258.611 45.772 258.443 45.254 258.093 44.904C257.743 44.554 257.197 44.386 256.441 44.386C255.881 44.386 255.405 44.54 255.027 44.848C254.649 45.156 254.453 45.548 254.453 46.024C254.453 46.5 254.677 46.864 255.111 47.186C255.545 47.508 256.427 47.788 257.757 48.04C259.843 48.446 261.397 49.062 262.405 49.888C263.413 50.7 263.917 51.862 263.917 53.36C263.917 54.858 263.231 56.174 261.873 57.168C260.501 58.162 258.695 58.666 256.455 58.666C254.215 58.666 252.283 58.078 250.925 56.888C249.567 55.712 248.923 54.382 248.979 52.926L249.007 52.828H253.851C253.865 53.64 254.117 54.228 254.593 54.592C255.069 54.956 255.727 55.124 256.595 55.124C257.309 55.124 257.855 54.984 258.219 54.704C258.583 54.424 258.779 54.032 258.779 53.514H258.765Z" fill="#211B2E"/>
<path d="M67.9952 50.0021L53.9973 64L67.9952 77.9979L81.9931 64L67.9952 50.0021Z" fill="#351774"/>
<path d="M68 22H40L54 36L68 50L82 36L68 22Z" fill="#DA5991"/>
<path d="M54 64L40 50L26 64L40 78H68L54 64Z" fill="#591C7E"/>
<path d="M40 22L26 36V64L40 50L54 36L40 22Z" fill="#A72E83"/>
</g>
</g>
</g>
<defs>
<filter id="filter0_b_263_2117" x="-42" y="-42" width="374" height="184" filterUnits="userSpaceOnUse" color-interpolation-filters="sRGB">
<feFlood flood-opacity="0" result="BackgroundImageFix"/>
<feGaussianBlur in="BackgroundImageFix" stdDeviation="21"/>
<feComposite in2="SourceAlpha" operator="in" result="effect1_backgroundBlur_263_2117"/>
<feBlend mode="normal" in="SourceGraphic" in2="effect1_backgroundBlur_263_2117" result="shape"/>
</filter>
<clipPath id="clip0_263_2117">
<rect width="238" height="56" fill="white" transform="translate(26 22)"/>
</clipPath>
</defs>
</svg>
