<svg width="240" height="100" viewBox="0 0 240 100" fill="none" xmlns="http://www.w3.org/2000/svg">
<g filter="url(#filter0_b_263_2158)">
<g clip-path="url(#clip0_263_2158)">
<path d="M35.6812 50.002C35.6812 51.0924 36.533 51.9442 37.6234 51.9442C38.7138 51.9442 39.5657 51.0924 39.5657 50.002C39.5657 48.9116 38.7138 48.0597 37.6234 48.0597C36.533 48.0938 35.6812 48.9456 35.6812 50.002ZM51.969 48.0938C50.8786 48.0938 50.0268 48.9456 50.0268 50.036C50.0268 51.1264 50.8786 51.9783 51.969 51.9783C53.0594 51.9783 53.9113 51.1264 53.9113 50.036C53.9113 48.9456 53.0594 48.0938 51.969 48.0938ZM51.969 62.6779C50.8786 62.6779 50.0268 63.5298 50.0268 64.6202C50.0268 65.7106 50.8786 66.5624 51.969 66.5624C53.0594 66.5624 53.9113 65.7106 53.9113 64.6202C53.9113 63.5298 53.0594 62.6779 51.969 62.6779Z" fill="#F3BB2D"/>
<path d="M56.0923 32.0445C54.15 29.6252 50.6744 29.5229 48.6299 31.4311L48.3913 31.6697L47.9143 32.0445C45.972 33.6119 43.0756 33.4756 41.2696 31.6697V31.5334C40.6563 30.92 39.8385 30.443 38.9866 30.2044C38.8503 30.2044 38.6118 30.0681 38.5096 30.0681H36.5673C36.431 30.0681 36.3288 30.0681 36.1925 30.2044H35.9539C35.8176 30.2044 35.7154 30.3407 35.5791 30.3407C35.5791 30.3407 35.4428 30.3407 35.4428 30.477C35.3065 30.477 35.2043 30.6133 35.068 30.6133C35.068 30.6133 34.9317 30.6133 34.9317 30.7496C34.7954 30.8859 34.6932 30.8859 34.5569 30.9882C34.5569 30.9882 34.4206 30.9882 34.4206 31.1245C34.2843 31.2608 34.182 31.2608 34.0457 31.363L33.9094 31.4993L33.6709 31.7378L33.1939 32.1126C31.2516 33.6801 28.3552 33.5438 26.6855 31.7378C26.6855 31.7378 26.5492 31.7378 26.5492 31.6015L26.3107 31.363C25.5951 30.7496 24.7432 30.2726 23.7891 30.1704H21.6083C21.6083 30.3067 21.472 30.3067 21.3698 30.4089H21.3357C20.7224 30.6474 20.1431 30.8859 19.632 31.363L19.4957 31.4993L19.1209 31.8741C18.6438 32.3512 18.4053 32.9645 18.1667 33.4416C18.1667 33.5779 18.0304 33.6801 18.0304 33.8164C18.0304 33.9527 17.8941 34.0549 17.8941 34.2934C17.7578 35.1453 17.7578 35.9972 18.0304 36.815C18.0304 36.9513 18.1667 37.0535 18.1667 37.1898V37.3261C18.1667 37.4624 18.303 37.5646 18.303 37.7009C18.4393 37.8372 18.4393 37.9395 18.5416 38.178C18.7801 38.3143 19.0186 38.5528 19.1549 38.6551L19.3935 38.8936L19.632 39.1321C21.438 40.9381 21.438 44.073 19.4957 46.0153C19.2572 46.2538 18.8823 46.6286 18.7801 46.8671C18.6438 47.0034 18.6438 47.1057 18.5416 47.3442V47.4805C18.4053 47.6168 18.4053 47.719 18.303 47.8553V47.9916C18.303 48.1279 18.1667 48.2301 18.1667 48.3664V48.5027C18.1667 48.639 18.1667 48.7413 18.0304 48.8776V50.6835C18.0304 50.8198 18.0304 50.9221 18.1667 51.0584V51.1947C18.4053 52.0465 18.8823 52.8984 19.5979 53.614C21.5402 55.5563 21.5402 58.6912 19.5979 60.5994L19.4616 60.7357L19.2231 60.9742V61.1105C19.0868 61.2468 18.9846 61.349 18.9846 61.4853C18.9846 61.4853 18.9846 61.6216 18.8482 61.6216C18.7119 61.7579 18.7119 61.8602 18.6097 61.9965L18.4734 62.1328C18.4734 62.2691 18.3371 62.2691 18.3371 62.3713C18.3371 62.4735 18.2008 62.5076 18.2008 62.6098C18.2008 62.7461 18.2008 62.7461 18.0645 62.8483C17.826 63.3254 17.6897 63.9387 17.6897 64.4158V65.3699C17.826 65.7447 17.826 66.0855 18.0645 66.324C18.0645 66.4603 18.2008 66.5625 18.2008 66.5625C18.2008 66.5625 18.2008 66.6988 18.3371 66.6988C18.3371 66.8351 18.4734 66.9374 18.4734 67.0737C18.4734 67.0737 18.4734 67.2099 18.6097 67.2099C18.746 67.4485 18.8482 67.5848 18.9846 67.687C18.9846 67.687 18.9845 67.8233 19.1209 67.8233C19.1209 67.8233 19.1209 67.9596 19.2572 67.9596C19.2572 68.0959 19.3935 68.0959 19.3935 68.0959L19.5298 68.2322C19.6661 68.3685 19.7683 68.3685 19.7683 68.4707L19.9046 68.607C19.9046 68.607 20.0409 68.607 20.0409 68.7433C20.1772 68.8796 20.2794 68.9819 20.4157 68.9819C20.4157 68.9819 20.552 68.9819 20.552 69.1182C20.6883 69.2545 20.7905 69.2544 20.9268 69.3567H20.995C21.1313 69.493 21.2335 69.493 21.472 69.493C21.6083 69.493 21.8469 69.6293 21.9491 69.6293H22.0854C22.2217 69.6293 22.3239 69.6293 22.4602 69.7656H23.5506C23.9254 69.7656 24.164 69.6293 24.5047 69.6293H24.641C24.7773 69.6293 24.8795 69.493 25.0158 69.493H25.084C25.2203 69.493 25.3225 69.3567 25.4588 69.3567H25.5951C25.8336 69.2204 26.2085 68.9818 26.447 68.8796L26.8218 68.5048L26.9581 68.3685C28.9004 66.324 32.0353 66.324 33.9435 68.3685C36.1243 70.6515 39.7363 70.5493 41.7808 67.9937C43.2119 66.1877 43.2119 63.5298 41.7808 61.5876C39.8385 59.1682 36.3628 59.066 34.3183 60.9742L34.0798 61.2127L33.6028 61.5876C31.6605 63.155 28.7641 63.0187 26.9581 61.2127L26.7196 60.9742L26.3448 60.4972C24.7773 58.5549 24.9136 55.6585 26.7196 53.8525C27.81 52.8984 28.287 51.5695 28.287 50.2406V49.8657C28.287 48.6731 27.81 47.4464 26.8559 46.5945C26.8559 46.4582 26.7196 46.4582 26.7196 46.356L26.3448 45.879C24.7773 43.9367 24.9136 41.0403 26.7196 39.2343L26.8559 39.098L26.9922 38.9617C28.9345 36.9172 32.0694 36.9172 33.9776 38.9617L34.1139 39.098L34.2502 39.2343L34.4887 39.4728C34.625 39.4728 34.625 39.6091 34.7272 39.6091C34.8295 39.6091 34.8635 39.7454 34.9658 39.7454C35.068 39.7454 35.1021 39.8817 35.2043 39.8817C35.3065 39.8817 35.3406 40.0181 35.4428 40.0181C35.545 40.0181 35.5791 40.1544 35.6813 40.1544C35.7836 40.1544 35.8176 40.2906 35.9199 40.2906C36.0221 40.2906 36.0562 40.2906 36.1584 40.4269C36.2947 40.4269 36.2947 40.4269 36.3969 40.5632H38.4414C38.5777 40.5632 38.6799 40.5632 38.8162 40.4269H39.0548C39.1911 40.4269 39.2933 40.2906 39.4296 40.2906H39.5659C39.7022 40.2906 39.8044 40.1543 40.0429 40.0521C40.52 39.8136 40.997 39.4388 41.3719 39.098L41.5082 38.9617C43.4504 36.9172 46.5853 36.9172 48.4936 38.9617C50.5381 41.3811 54.2863 41.2447 56.2286 38.7232C57.5234 36.5083 57.5234 33.8505 56.0923 32.0445Z" fill="#F3BB2D"/>
<path d="M83.5908 47.0035C82.8752 46.2879 82.2618 45.8109 81.41 45.436C80.6944 45.0612 79.8425 44.8227 78.7521 44.8227C77.798 44.8227 76.8098 45.0612 76.0942 45.436C75.3787 45.8109 74.7653 46.2879 74.2883 47.0035C73.8112 47.6168 73.4364 48.3324 73.1979 49.1843C72.9593 50.0362 72.823 50.8881 72.823 51.7059C72.823 52.5237 72.9593 53.4096 73.3001 54.2274C73.5386 55.0793 74.0157 55.6586 74.4927 56.2719C74.9698 56.8853 75.6853 57.3623 76.435 57.7031C77.1506 58.0779 78.0024 58.1801 78.9566 58.1801C80.047 58.1801 80.8988 57.9416 81.6144 57.5668C82.33 57.1919 83.0456 56.7149 83.6589 55.9993L86.1805 58.6572C85.2264 59.7476 84.136 60.4631 82.9093 60.9402C81.7166 61.4173 80.3877 61.6558 78.9225 61.6558C77.4913 61.6558 76.0261 61.4173 74.8335 60.9402C73.6408 60.4631 72.5504 59.7476 71.6986 58.8957C70.8467 58.0438 70.1311 56.9534 69.6541 55.7608C69.177 54.5682 68.9385 53.1029 68.9385 51.6718C68.9385 50.2406 69.177 48.7754 69.6541 47.5828C70.1311 46.3901 70.8467 45.2997 71.6986 44.3116C72.5504 43.4597 73.6408 42.7441 74.8335 42.2671C76.0261 41.79 77.4913 41.5515 78.9225 41.5515C80.3536 41.5515 81.6826 41.79 82.9093 42.2671C84.2382 42.7441 85.3286 43.596 86.2827 44.5501L83.5908 47.0035ZM91.7688 51.4673C91.7688 52.4214 91.9051 53.4096 92.2458 54.1252C92.4844 54.9771 92.9614 55.6926 93.4385 56.306C93.9155 56.9193 94.6311 57.3964 95.3807 57.6349C96.0963 58.0097 97.0845 58.112 98.0386 58.112C98.9927 58.112 99.8446 57.9757 100.696 57.6349C101.412 57.2601 102.128 56.783 102.639 56.306C103.116 55.6926 103.593 54.9771 103.831 54.1252C104.07 53.2733 104.308 52.4214 104.308 51.4673C104.308 50.5132 104.172 49.525 103.831 48.8095C103.593 47.9576 103.116 47.242 102.639 46.6287C102.162 46.0153 101.446 45.5383 100.696 45.2997C99.9809 44.9249 98.9927 44.8227 98.0386 44.8227C97.0845 44.8227 96.2326 44.959 95.3807 45.2997C94.6652 45.6746 93.9496 46.1516 93.4385 46.6287C92.9614 47.242 92.4844 47.9576 92.2458 48.8095C92.0073 49.6614 91.7688 50.5132 91.7688 51.4673ZM87.9183 51.4673C87.9183 50.0362 88.1568 48.7073 88.6339 47.4805C89.1109 46.2879 89.8265 45.1975 90.8147 44.2093C91.7688 43.2552 92.757 42.5056 94.0859 42.0285C95.2785 41.5515 96.6074 41.1767 98.0727 41.1767C99.5379 41.1767 100.833 41.4152 102.059 42.0285C103.252 42.5056 104.342 43.2212 105.331 44.2093C106.285 45.1634 106.898 46.2538 107.511 47.4805C107.989 48.6732 108.227 50.0021 108.227 51.4673C108.227 52.8985 107.989 54.2274 107.511 55.4541C107.034 56.6467 106.319 57.7371 105.331 58.7253C104.377 59.6794 103.388 60.2928 102.059 60.9061C100.867 61.3832 99.5379 61.758 98.0727 61.758C96.6415 61.758 95.3126 61.5195 94.0859 60.9061C92.8933 60.4291 91.8028 59.7135 90.8147 58.7253C89.8606 57.7712 89.2472 56.783 88.6339 55.4541C88.2931 54.2274 87.9183 52.8985 87.9183 51.4673ZM111.941 61.2469H115.553V41.9604H111.941V61.2469ZM111.089 34.9409C111.089 34.2253 111.328 33.612 111.805 32.9986C112.282 32.5216 112.895 32.1468 113.611 32.1468C114.326 32.1468 114.94 32.3853 115.417 32.9986C115.894 33.4757 116.132 34.1913 116.132 34.9409C116.132 35.6906 115.894 36.2698 115.417 36.8832C114.94 37.3602 114.326 37.7351 113.611 37.7351C112.895 37.7351 112.282 37.4966 111.805 36.8832C111.328 36.3721 111.089 35.6565 111.089 34.9409ZM120.596 41.9263H124.242V44.9249H124.379C124.856 43.8345 125.571 42.9826 126.798 42.4034C127.888 41.79 129.217 41.4493 130.785 41.4493C131.739 41.4493 132.591 41.5856 133.443 41.9263C134.294 42.1648 135.01 42.6419 135.623 43.2552C136.237 43.8686 136.714 44.5842 137.191 45.5383C137.566 46.4924 137.804 47.5828 137.804 48.9117V61.3491H134.124V49.8999C134.124 49.048 133.988 48.1961 133.749 47.6168C133.511 47.0035 133.136 46.4242 132.795 46.0494C132.42 45.6746 131.943 45.3338 131.364 45.1975C130.887 45.0612 130.274 44.959 129.66 44.959C128.945 44.959 128.229 45.0953 127.616 45.3338C127.002 45.5723 126.423 45.9472 125.912 46.5264C125.435 47.0035 125.06 47.7191 124.822 48.5709C124.583 49.4228 124.447 50.3769 124.447 51.4673V61.4854H120.835V41.9604M151.128 58.2142C152.082 58.2142 152.934 58.0779 153.785 57.7371C154.637 57.3623 155.217 56.8853 155.83 56.306C156.307 55.6926 156.784 54.9771 157.023 54.1252C157.261 53.2733 157.5 52.4214 157.5 51.3651C157.5 50.411 157.363 49.4228 157.023 48.605C156.784 47.7531 156.307 47.0376 155.83 46.4242C155.217 45.8109 154.637 45.3338 153.785 44.9931C152.934 44.6182 152.082 44.516 151.128 44.516C150.173 44.516 149.322 44.6523 148.47 44.9931C147.618 45.3679 147.039 45.8449 146.425 46.4242C145.948 47.0376 145.471 47.7531 145.233 48.605C144.994 49.4569 144.756 50.3088 144.756 51.3651C144.756 52.3192 144.892 53.3074 145.233 54.1252C145.471 54.9771 145.948 55.6926 146.425 56.306C146.902 56.9193 147.618 57.3964 148.47 57.7371C149.185 57.9757 150.173 58.2142 151.128 58.2142ZM161.146 61.1106H157.534V58.3505H157.397C156.682 59.4409 155.694 60.1565 154.501 60.7698C153.308 61.3832 151.979 61.6217 150.65 61.6217C149.219 61.6217 147.754 61.3832 146.561 60.9061C145.369 60.4291 144.278 59.7135 143.427 58.7253C142.575 57.7712 141.859 56.6808 141.484 55.4541C141.007 54.2615 140.769 52.9326 140.769 51.4673C140.769 50.0021 141.007 48.7072 141.484 47.3783C141.961 46.1857 142.575 45.0953 143.427 44.1071C144.278 43.153 145.369 42.4034 146.561 41.9263C147.754 41.4493 149.083 41.2107 150.65 41.2107C151.979 41.2107 153.308 41.4493 154.501 42.0626C155.694 42.676 156.682 43.4938 157.261 44.4819H157.397V30H161.009V61.1106H161.146ZM179.58 49.8999C179.58 49.048 179.444 48.3324 179.205 47.6168C178.967 46.9013 178.592 46.2879 178.115 45.8109C177.638 45.3338 177.025 44.959 176.411 44.6182C175.696 44.3797 174.98 44.1412 173.992 44.1412C173.14 44.1412 172.288 44.2775 171.573 44.6182C170.857 44.9931 170.244 45.3338 169.63 45.9472C169.153 46.4242 168.676 47.0376 168.438 47.7531C168.199 48.4687 167.961 49.0821 167.961 49.6954H179.546L179.58 49.8999ZM168.029 52.8985C168.029 53.7504 168.267 54.4659 168.642 55.1815C169.017 55.8971 169.494 56.5104 170.073 56.9875C170.687 57.4645 171.402 57.8394 172.118 58.0779C172.97 58.3164 173.685 58.4527 174.537 58.4527C175.628 58.4527 176.718 58.2142 177.536 57.6008C178.388 57.1238 179.103 56.4082 179.819 55.5563L182.579 57.7371C180.534 60.395 177.638 61.7239 174.026 61.7239C172.459 61.7239 171.13 61.4854 169.937 61.0083C168.744 60.5313 167.654 59.8157 166.802 58.8275C165.95 57.8734 165.235 56.8853 164.86 55.5563C164.383 54.3637 164.144 53.0348 164.144 51.5696C164.144 50.1384 164.383 48.8095 164.86 47.5828C165.337 46.3901 166.052 45.2997 166.904 44.3116C167.756 43.3575 168.847 42.7441 170.039 42.1308C171.232 41.6537 172.561 41.4152 174.026 41.4152C175.73 41.4152 177.161 41.6537 178.354 42.2671C179.546 42.8804 180.534 43.596 181.25 44.5501C181.965 45.5042 182.579 46.5946 182.954 47.8213C183.328 49.0139 183.431 50.2406 183.431 51.5696V52.8985H168.029ZM197.674 46.765C197.197 46.2879 196.72 45.8109 196.107 45.436C195.493 45.0612 194.675 44.8227 193.824 44.8227C192.972 44.8227 192.256 45.0612 191.541 45.436C190.927 45.8109 190.586 46.2879 190.586 47.0035C190.586 47.6168 190.825 48.0939 191.2 48.3324C191.575 48.7073 192.052 48.9458 192.529 49.1843C193.006 49.4228 193.619 49.5591 194.096 49.6614C194.71 49.7976 195.187 49.8999 195.527 49.8999C196.243 50.1384 197.095 50.2747 197.708 50.6154C198.424 50.854 199.037 51.2288 199.514 51.7059C199.991 52.1829 200.366 52.66 200.707 53.2733C200.945 53.8867 201.184 54.6022 201.184 55.5563C201.184 56.6467 200.945 57.6008 200.468 58.3164C199.991 59.032 199.378 59.7476 198.662 60.2587C197.947 60.7698 197.095 61.1106 196.141 61.3491C195.187 61.5876 194.198 61.7239 193.381 61.7239C191.813 61.7239 190.382 61.4854 189.155 61.0083C187.963 60.5313 186.872 59.6794 185.884 58.3505L188.644 56.0675C189.258 56.6808 189.837 57.1579 190.586 57.6349C191.336 58.112 192.154 58.3505 193.244 58.3505C193.721 58.3505 194.198 58.3505 194.675 58.2142C195.153 58.0779 195.527 57.9757 195.868 57.7371C196.243 57.4986 196.481 57.2601 196.72 57.0216C196.959 56.6467 197.095 56.306 197.095 55.9312C197.095 55.4541 196.959 54.9771 196.618 54.6022C196.243 54.2274 195.902 53.9889 195.425 53.7504C194.948 53.5118 194.471 53.3755 193.994 53.2733L192.563 52.8985C191.847 52.66 190.995 52.5237 190.382 52.2851C189.666 52.0466 189.053 51.6718 188.576 51.331C188.099 50.9562 187.622 50.3769 187.247 49.7636C186.872 49.1502 186.77 48.3324 186.77 47.4805C186.77 46.5264 187.009 45.5383 187.383 44.8227C187.758 44.1071 188.338 43.4938 189.087 43.0167C189.803 42.5397 190.518 42.1648 191.37 41.9263C192.222 41.6878 193.176 41.5515 194.028 41.5515C195.357 41.5515 196.55 41.79 197.776 42.2671C198.969 42.7441 199.957 43.596 200.673 44.6864L197.674 46.765ZM204.694 30.4771H208.306V50.0021L216.518 41.79H221.458L212.667 50.4791L222.31 60.838H217.131L208.34 50.9562V60.838H204.728V30.4771" fill="#101820"/>
</g>
</g>
<defs>
<filter id="filter0_b_263_2158" x="-42" y="-42" width="324" height="184" filterUnits="userSpaceOnUse" color-interpolation-filters="sRGB">
<feFlood flood-opacity="0" result="BackgroundImageFix"/>
<feGaussianBlur in="BackgroundImageFix" stdDeviation="21"/>
<feComposite in2="SourceAlpha" operator="in" result="effect1_backgroundBlur_263_2158"/>
<feBlend mode="normal" in="SourceGraphic" in2="effect1_backgroundBlur_263_2158" result="shape"/>
</filter>
<clipPath id="clip0_263_2158">
<rect width="204.621" height="40" fill="white" transform="translate(17.6897 30)"/>
</clipPath>
</defs>
</svg>
