<svg width="49" height="49" viewBox="0 0 49 49" fill="none" xmlns="http://www.w3.org/2000/svg">
<path d="M44.5 46H10.5C6.36 46 3 42.64 3 38.5V4.5C3 3.68 3.68 3 4.5 3C5.32 3 6 3.68 6 4.5V38.5C6 40.98 8.02 43 10.5 43H44.5C45.32 43 46 43.68 46 44.5C46 45.32 45.32 46 44.5 46Z" fill="#EB2A23"/>
<path d="M10.4996 36.0001C10.1596 36.0001 9.79964 35.8801 9.51964 35.6401C8.89964 35.1001 8.81964 34.1602 9.35964 33.5202L18.5396 22.8001C19.5396 21.6401 20.9796 20.9401 22.4996 20.8801C24.0196 20.8401 25.5196 21.4001 26.5996 22.4801L28.4996 24.3801C28.9996 24.8801 29.6596 25.1201 30.3596 25.1201C31.0596 25.1001 31.6996 24.7801 32.1596 24.2401L41.3396 13.5202C41.8796 12.9002 42.8196 12.8201 43.4596 13.3601C44.0796 13.9001 44.1596 14.8401 43.6196 15.4801L34.4396 26.2001C33.4396 27.3601 31.9996 28.0601 30.4796 28.1201C28.9596 28.1601 27.4596 27.6002 26.3796 26.5202L24.4996 24.6201C23.9996 24.1201 23.3396 23.8601 22.6396 23.8801C21.9396 23.9001 21.2996 24.2201 20.8396 24.7601L11.6596 35.4801C11.3396 35.8201 10.9196 36.0001 10.4996 36.0001Z" fill="#EB2A23"/>
</svg>
