<svg width="48" height="44" viewBox="0 0 48 44" fill="none" xmlns="http://www.w3.org/2000/svg">
<path d="M24.0006 1.68677L46.2863 11.3451L24.0006 20.9999L1.71484 11.3451L24.0006 1.68677Z" stroke="#EB2A23" stroke-width="3" stroke-linecap="round" stroke-linejoin="round"/>
<path d="M11.8291 15.7508L11.8497 26.2559C11.8497 26.2559 15.5286 31.1245 24.0006 31.1245C32.4691 31.1245 36.172 26.2559 36.172 26.2559L36.1686 15.7508M5.81199 33.3462V13.1519M5.81199 33.3462C6.89953 33.3462 7.94595 33.7782 8.71496 34.5472C9.48396 35.3162 9.91599 36.3592 9.91599 37.4468C9.91599 38.5343 9.48396 39.5773 8.71496 40.3463C7.94595 41.1153 6.90295 41.5473 5.81542 41.5473C4.72788 41.5473 3.68488 41.1153 2.91587 40.3463C2.14687 39.5773 1.71484 38.5343 1.71484 37.4468C1.71484 36.3592 2.14687 35.3162 2.91587 34.5472C3.68488 33.7782 4.72445 33.3462 5.81199 33.3462Z" stroke="#EB2A23" stroke-width="3" stroke-linecap="round" stroke-linejoin="round"/>
</svg>
