<svg width="48" height="48" viewBox="0 0 48 48" fill="none" xmlns="http://www.w3.org/2000/svg">
<path d="M14 36V34C14 31.3478 15.0536 28.8043 16.9289 26.9289C18.8043 25.0536 21.3478 24 24 24M24 24C26.6522 24 29.1957 25.0536 31.0711 26.9289C32.9464 28.8043 34 31.3478 34 34V36M24 24C25.5913 24 27.1174 23.3679 28.2426 22.2426C29.3679 21.1174 30 19.5913 30 18C30 16.4087 29.3679 14.8826 28.2426 13.7574C27.1174 12.6321 25.5913 12 24 12C22.4087 12 20.8826 12.6321 19.7574 13.7574C18.6321 14.8826 18 16.4087 18 18C18 19.5913 18.6321 21.1174 19.7574 22.2426C20.8826 23.3679 22.4087 24 24 24ZM2 36V34C2 32.4087 2.63214 30.8826 3.75736 29.7574C4.88258 28.6321 6.4087 28 8 28M8 28C9.06087 28 10.0783 27.5786 10.8284 26.8284C11.5786 26.0783 12 25.0609 12 24C12 22.9391 11.5786 21.9217 10.8284 21.1716C10.0783 20.4214 9.06087 20 8 20C6.93913 20 5.92172 20.4214 5.17157 21.1716C4.42143 21.9217 4 22.9391 4 24C4 25.0609 4.42143 26.0783 5.17157 26.8284C5.92172 27.5786 6.93913 28 8 28ZM46 36V34C46 32.4087 45.3679 30.8826 44.2426 29.7574C43.1174 28.6321 41.5913 28 40 28M40 28C41.0609 28 42.0783 27.5786 42.8284 26.8284C43.5786 26.0783 44 25.0609 44 24C44 22.9391 43.5786 21.9217 42.8284 21.1716C42.0783 20.4214 41.0609 20 40 20C38.9391 20 37.9217 20.4214 37.1716 21.1716C36.4214 21.9217 36 22.9391 36 24C36 25.0609 36.4214 26.0783 37.1716 26.8284C37.9217 27.5786 38.9391 28 40 28Z" stroke="#EB2A23" stroke-width="3" stroke-linecap="round" stroke-linejoin="round"/>
</svg>
