<svg width="49" height="48" viewBox="0 0 49 48" fill="none" xmlns="http://www.w3.org/2000/svg">
<path d="M24.3335 15C25.8335 9.07876 31.4988 6.05532 43.8335 6.00001C44.0307 5.99927 44.2261 6.03756 44.4084 6.11268C44.5907 6.1878 44.7564 6.29826 44.8958 6.43769C45.0353 6.57713 45.1457 6.74278 45.2208 6.92511C45.296 7.10743 45.3343 7.30282 45.3335 7.50001V34.5C45.3335 34.8978 45.1755 35.2794 44.8942 35.5607C44.6129 35.842 44.2313 36 43.8335 36C31.8335 36 27.1976 38.4197 24.3335 42M24.3335 15C22.8335 9.07876 17.1682 6.05532 4.83351 6.00001C4.63632 5.99927 4.44093 6.03756 4.2586 6.11268C4.07628 6.1878 3.91062 6.29826 3.77119 6.43769C3.63175 6.57713 3.52129 6.74278 3.44617 6.92511C3.37105 7.10743 3.33276 7.30282 3.33351 7.50001V34.3191C3.33351 35.2453 3.90726 36 4.83351 36C16.8335 36 21.4863 38.4375 24.3335 42M24.3335 15V42" stroke="#EB2A23" stroke-width="3" stroke-linecap="round" stroke-linejoin="round"/>
</svg>
