<svg width="40" height="38" viewBox="0 0 40 38" fill="none" xmlns="http://www.w3.org/2000/svg">
<path d="M36.5 10.5H29.9225C29.9956 10.4381 30.0706 10.3781 30.1419 10.3125C30.7113 9.80658 31.1703 9.1886 31.49 8.49722C31.8097 7.80583 31.9833 7.05592 32 6.29437C32.0246 5.46126 31.8787 4.6319 31.5712 3.85722C31.2638 3.08254 30.8012 2.37887 30.2119 1.78943C29.6226 1.19998 28.9191 0.737198 28.1445 0.429481C27.3699 0.121765 26.5406 -0.0243887 25.7075 -6.74604e-06C24.9456 0.016403 24.1954 0.189902 23.5036 0.509631C22.8119 0.82936 22.1936 1.28843 21.6875 1.85812C20.9872 2.6698 20.4178 3.58582 20 4.57312C19.5822 3.58582 19.0128 2.6698 18.3125 1.85812C17.8064 1.28843 17.1881 0.82936 16.4964 0.509631C15.8046 0.189902 15.0544 0.016403 14.2925 -6.74604e-06C13.4594 -0.0243887 12.6301 0.121765 11.8555 0.429481C11.0809 0.737198 10.3774 1.19998 9.78809 1.78943C9.19882 2.37887 8.73625 3.08254 8.42876 3.85722C8.12128 4.6319 7.97537 5.46126 8 6.29437C8.01667 7.05592 8.19029 7.80583 8.51001 8.49722C8.82973 9.1886 9.28867 9.80658 9.85813 10.3125C9.92938 10.3744 10.0044 10.4344 10.0775 10.5H3.5C2.70435 10.5 1.94129 10.8161 1.37868 11.3787C0.81607 11.9413 0.5 12.7043 0.5 13.5V19.5C0.5 20.2956 0.81607 21.0587 1.37868 21.6213C1.94129 22.1839 2.70435 22.5 3.5 22.5V34.5C3.5 35.2956 3.81607 36.0587 4.37868 36.6213C4.94129 37.1839 5.70435 37.5 6.5 37.5H33.5C34.2957 37.5 35.0587 37.1839 35.6213 36.6213C36.1839 36.0587 36.5 35.2956 36.5 34.5V22.5C37.2957 22.5 38.0587 22.1839 38.6213 21.6213C39.1839 21.0587 39.5 20.2956 39.5 19.5V13.5C39.5 12.7043 39.1839 11.9413 38.6213 11.3787C38.0587 10.8161 37.2957 10.5 36.5 10.5ZM23.9375 3.84562C24.175 3.58334 24.4642 3.373 24.7868 3.22781C25.1095 3.08261 25.4587 3.00568 25.8125 3.00187H25.9044C26.3191 3.00446 26.7291 3.0898 27.1104 3.25288C27.4916 3.41596 27.8365 3.6535 28.1249 3.95158C28.4132 4.24967 28.6391 4.6023 28.7893 4.98881C28.9396 5.37533 29.0112 5.78795 29 6.20249C28.9962 6.5563 28.9193 6.9055 28.7741 7.22817C28.6289 7.55083 28.4185 7.83999 28.1562 8.07749C26.3769 9.65249 23.4237 10.2075 21.5938 10.4025C21.8188 8.41687 22.4375 5.53124 23.9375 3.84562ZM11.9206 3.91312C12.5018 3.33204 13.2888 3.00388 14.1106 2.99999H14.2025C14.5563 3.00381 14.9055 3.08073 15.2282 3.22593C15.5508 3.37113 15.84 3.58147 16.0775 3.84374C17.6506 5.62124 18.2056 8.56874 18.4006 10.3912C16.5781 10.2037 13.6306 9.64124 11.8531 8.06812C11.5909 7.83062 11.3805 7.54145 11.2353 7.21879C11.0901 6.89613 11.0132 6.54693 11.0094 6.19312C10.9977 5.77168 11.0719 5.35228 11.2272 4.96035C11.3826 4.56842 11.6159 4.21214 11.9131 3.91312H11.9206ZM3.5 13.5H18.5V19.5H3.5V13.5ZM6.5 22.5H18.5V34.5H6.5V22.5ZM33.5 34.5H21.5V22.5H33.5V34.5ZM36.5 19.5H21.5V13.5H36.5V19.5Z" fill="#EB2A23"/>
</svg>
