<svg width="200" height="200" viewBox="0 0 200 200" fill="none" xmlns="http://www.w3.org/2000/svg">
<g clip-path="url(#clip0_917_350)">
<g filter="url(#filter0_d_917_350)">
<path d="M121.509 152.157C141.773 149.703 160.213 143.603 174.867 134.488C191.975 123.9 202.142 104.058 199.618 80.7094C196.813 54.3462 168.206 19.8496 101.877 19.9898C75.0231 19.9898 48.9403 25.3186 30.3598 37.8691C12.1299 50.2094 0 68.7899 0 87.5807C0 118.221 29.869 143.813 75.9346 151.175L126.488 179.221L121.509 152.157Z" fill="#FF3E37"/>
<path d="M62.5391 46.7735C58.0518 46.7735 54.3357 48.4562 51.5311 51.8919C48.7265 55.3275 47.3242 59.7447 47.3242 65.1436C47.3242 72.7862 49.2173 79.0264 52.9334 83.7942C56.7196 88.6322 61.5575 91.0161 67.5173 91.0161C72.3552 91.0161 76.4219 89.4034 79.6472 86.0379C82.8725 82.7425 84.5553 78.6057 84.5553 73.6976C84.5553 66.4758 82.3817 60.1654 77.9644 54.7666C73.5472 49.4378 68.4989 46.7735 62.5391 46.7735ZM66.6759 42.7068C76.492 42.7068 84.5553 45.9321 90.8656 52.3827C97.176 58.8333 100.331 67.1068 100.331 77.2034C100.331 89.754 95.4231 100.972 85.6771 110.859C75.9311 120.745 63.661 126.915 48.8667 129.299L42.9069 130.281C42.2058 130.351 41.715 130.421 41.154 130.421C39.8219 130.421 39.1908 129.79 39.2609 128.458C39.331 127.756 39.5414 127.336 39.9621 127.195C40.3828 127.055 41.6448 126.705 43.8885 126.284C50.9701 124.882 57.8414 121.656 64.5725 116.538C71.3035 111.42 75.7909 106.091 77.9644 100.411L79.3667 96.7655C79.8576 95.5034 80.138 94.5218 80.138 93.7506C80.138 92.4184 79.6472 91.7873 78.5254 91.8575C78.0346 91.9276 77.4035 92.1379 76.5621 92.6287C73.9679 94.2414 70.6725 95.7138 66.8863 96.9057C63.0299 98.0977 59.8748 98.7287 57.2805 98.7287C50.3391 98.7287 44.5196 96.3448 39.7517 91.5069C35.054 86.7391 32.7402 80.7793 32.7402 73.7678C32.7402 64.6528 35.9655 57.2206 42.2759 51.4011C48.6564 45.5815 56.7897 42.7068 66.6759 42.7068Z" fill="white"/>
<path d="M136.166 46.7733C131.678 46.7733 127.962 48.4561 125.158 51.8917C122.353 55.3274 120.951 59.7446 120.951 65.1435C120.951 72.786 122.844 79.0263 126.56 83.7941C130.346 88.632 135.184 91.016 141.144 91.016C145.982 91.016 150.048 89.4033 153.274 86.0378C156.499 82.7424 158.182 78.6056 158.182 73.6975C158.182 66.4757 156.008 60.1653 151.591 54.7665C147.174 49.4377 142.055 46.7733 136.166 46.7733ZM140.232 42.7067C150.048 42.7067 158.112 45.932 164.422 52.3825C170.732 58.8331 173.888 67.1067 173.888 77.2033C173.888 89.7539 168.98 100.972 159.234 110.859C149.488 120.745 137.217 126.915 122.423 129.299L116.463 130.28C115.762 130.351 115.271 130.421 114.71 130.421C113.378 130.421 112.747 129.79 112.817 128.457C112.887 127.756 113.098 127.336 113.519 127.195C113.939 127.055 115.201 126.705 117.445 126.284C124.527 124.882 131.398 121.656 138.129 116.538C144.79 111.419 149.347 106.091 151.521 100.411L152.923 96.7654C153.414 95.5033 153.694 94.5217 153.694 93.7504C153.694 92.4183 153.204 91.7872 152.082 91.8573C151.591 91.9274 150.96 92.1378 150.119 92.6286C147.524 94.2412 144.229 95.7137 140.443 96.9056C136.657 98.0976 133.431 98.7286 130.837 98.7286C123.896 98.7286 118.076 96.3447 113.308 91.5068C108.61 86.7389 106.227 80.7792 106.227 73.7676C106.227 64.6527 109.452 57.2205 115.762 51.4009C122.213 45.5814 130.346 42.7067 140.232 42.7067Z" fill="white"/>
</g>
</g>
<defs>
<filter id="filter0_d_917_350" x="-3.89333" y="19.9894" width="207.787" height="167.018" filterUnits="userSpaceOnUse" color-interpolation-filters="sRGB">
<feFlood flood-opacity="0" result="BackgroundImageFix"/>
<feColorMatrix in="SourceAlpha" type="matrix" values="0 0 0 0 0 0 0 0 0 0 0 0 0 0 0 0 0 0 127 0" result="hardAlpha"/>
<feOffset dy="3.89333"/>
<feGaussianBlur stdDeviation="1.94667"/>
<feComposite in2="hardAlpha" operator="out"/>
<feColorMatrix type="matrix" values="0 0 0 0 0 0 0 0 0 0 0 0 0 0 0 0 0 0 0.25 0"/>
<feBlend mode="normal" in2="BackgroundImageFix" result="effect1_dropShadow_917_350"/>
<feBlend mode="normal" in="SourceGraphic" in2="effect1_dropShadow_917_350" result="shape"/>
</filter>
<clipPath id="clip0_917_350">
<rect width="200" height="200" fill="white"/>
</clipPath>
</defs>
</svg>
