<svg width="28" height="28" viewBox="0 0 28 28" fill="none" xmlns="http://www.w3.org/2000/svg">
<rect x="0.35" y="0.344629" width="27.3" height="27.3" rx="13.65" fill="#171717"/>
<rect x="0.35" y="0.344629" width="27.3" height="27.3" rx="13.65" stroke="url(#paint0_linear_272_4194)" stroke-width="0.7"/>
<g clip-path="url(#clip0_272_4194)">
<mask id="path-2-inside-1_272_4194" fill="white">
<path d="M18.1626 7.49463H20.3679L15.5499 13.0013L21.2179 20.4946H16.7799L13.3039 15.95L9.3266 20.4946H7.11994L12.2733 14.6046L6.83594 7.49463H11.3866L14.5286 11.6486L18.1626 7.49463ZM17.3886 19.1746H18.6106L10.7226 8.7453H9.41127L17.3886 19.1746Z"/>
</mask>
<path d="M18.1626 7.49463H20.3679L15.5499 13.0013L21.2179 20.4946H16.7799L13.3039 15.95L9.3266 20.4946H7.11994L12.2733 14.6046L6.83594 7.49463H11.3866L14.5286 11.6486L18.1626 7.49463ZM17.3886 19.1746H18.6106L10.7226 8.7453H9.41127L17.3886 19.1746Z" fill="white"/>
<path d="M18.1626 7.49463V5.49463H17.2549L16.6573 6.17777L18.1626 7.49463ZM20.3679 7.49463L21.8731 8.81159L24.7753 5.49463H20.3679V7.49463ZM15.5499 13.0013L14.0447 11.6843L12.9728 12.9095L13.9549 14.2078L15.5499 13.0013ZM21.2179 20.4946V22.4946H25.2385L22.813 19.2881L21.2179 20.4946ZM16.7799 20.4946L15.1913 21.7097L15.7917 22.4946H16.7799V20.4946ZM13.3039 15.95L14.8925 14.7349L13.4081 12.7941L11.7989 14.6328L13.3039 15.95ZM9.3266 20.4946V22.4946H10.234L10.8316 21.8118L9.3266 20.4946ZM7.11994 20.4946L5.61473 19.1777L2.71264 22.4946H7.11994V20.4946ZM12.2733 14.6046L13.7785 15.9216L14.8562 14.6898L13.862 13.3897L12.2733 14.6046ZM6.83594 7.49463V5.49463H2.78864L5.24725 8.70957L6.83594 7.49463ZM11.3866 7.49463L12.9817 6.28813L12.3815 5.49463H11.3866V7.49463ZM14.5286 11.6486L12.9335 12.8551L14.4159 14.815L16.0339 12.9655L14.5286 11.6486ZM17.3886 19.1746L15.8 20.3897L16.4004 21.1746H17.3886V19.1746ZM18.6106 19.1746V21.1746H22.6309L20.2057 17.9682L18.6106 19.1746ZM10.7226 8.7453L12.3177 7.53884L11.7176 6.7453H10.7226V8.7453ZM9.41127 8.7453V6.7453H5.3635L7.8227 9.96038L9.41127 8.7453ZM18.1626 9.49463H20.3679V5.49463H18.1626V9.49463ZM18.8627 6.17767L14.0447 11.6843L17.0551 14.3183L21.8731 8.81159L18.8627 6.17767ZM13.9549 14.2078L19.6229 21.7012L22.813 19.2881L17.145 11.7948L13.9549 14.2078ZM21.2179 18.4946H16.7799V22.4946H21.2179V18.4946ZM18.3685 19.2796L14.8925 14.7349L11.7153 17.165L15.1913 21.7097L18.3685 19.2796ZM11.7989 14.6328L7.82157 19.1775L10.8316 21.8118L14.809 17.2671L11.7989 14.6328ZM9.3266 18.4946H7.11994V22.4946H9.3266V18.4946ZM8.62514 21.8116L13.7785 15.9216L10.7681 13.2877L5.61473 19.1777L8.62514 21.8116ZM13.862 13.3897L8.42462 6.27969L5.24725 8.70957L10.6846 15.8196L13.862 13.3897ZM6.83594 9.49463H11.3866V5.49463H6.83594V9.49463ZM9.7915 8.70113L12.9335 12.8551L16.1237 10.4421L12.9817 6.28813L9.7915 8.70113ZM16.0339 12.9655L19.6679 8.81148L16.6573 6.17777L13.0233 10.3318L16.0339 12.9655ZM17.3886 21.1746H18.6106V17.1746H17.3886V21.1746ZM20.2057 17.9682L12.3177 7.53884L9.12746 9.95175L17.0155 20.3811L20.2057 17.9682ZM10.7226 6.7453H9.41127V10.7453H10.7226V6.7453ZM7.8227 9.96038L15.8 20.3897L18.9772 17.9595L10.9998 7.53021L7.8227 9.96038Z" fill="white" mask="url(#path-2-inside-1_272_4194)"/>
</g>
<defs>
<linearGradient id="paint0_linear_272_4194" x1="14" y1="-0.00537109" x2="14" y2="26.9764" gradientUnits="userSpaceOnUse">
<stop stop-color="#676A70" stop-opacity="0.2"/>
<stop offset="0.557292" stop-color="#BCBDC0" stop-opacity="0.05"/>
<stop offset="1" stop-color="white" stop-opacity="0.05"/>
</linearGradient>
<clipPath id="clip0_272_4194">
<rect width="16" height="16" fill="white" transform="translate(6 5.99463)"/>
</clipPath>
</defs>
</svg>
