<svg width="15" height="14" viewBox="0 0 15 14" fill="none" xmlns="http://www.w3.org/2000/svg">
<rect width="14" height="14" transform="translate(0.799988)" fill="white"/>
<path d="M5.99165 11.1708C5.62415 11.1708 5.27999 11.0833 4.97665 10.9083C4.25915 10.4942 3.86249 9.65999 3.86249 8.56332V5.44249C3.86249 4.34582 4.25915 3.51166 4.97665 3.09749C5.69415 2.68332 6.60999 2.75916 7.56665 3.30749L10.2675 4.86499C11.2183 5.41332 11.7433 6.17166 11.7433 6.99999C11.7433 7.82832 11.2183 8.58666 10.2675 9.13499L7.56665 10.6925C7.01832 11.0133 6.48165 11.1708 5.99165 11.1708ZM5.99165 3.70999C5.77582 3.70999 5.57749 3.75666 5.40832 3.85582C4.97665 4.10666 4.73749 4.66666 4.73749 5.44249V8.55749C4.73749 9.32749 4.97665 9.89332 5.41415 10.1442C5.85165 10.395 6.45832 10.3192 7.12915 9.93416L9.82999 8.37666C10.5008 7.99166 10.8683 7.50166 10.8683 6.99999C10.8683 6.49832 10.5008 6.00832 9.82999 5.62332L7.12915 4.06582C6.71499 3.82666 6.32999 3.70999 5.99165 3.70999Z" fill="#171717"/>
</svg>
