<svg width="48" height="48" viewBox="0 0 48 48" fill="none" xmlns="http://www.w3.org/2000/svg">
<path d="M24 45.5C12.14 45.5 2.5 35.86 2.5 24C2.5 12.14 12.14 2.5 24 2.5C35.86 2.5 45.5 12.14 45.5 24C45.5 35.86 35.86 45.5 24 45.5ZM24 5.5C13.8 5.5 5.5 13.8 5.5 24C5.5 34.2 13.8 42.5 24 42.5C34.2 42.5 42.5 34.2 42.5 24C42.5 13.8 34.2 5.5 24 5.5Z" fill="#EB2A23"/>
<path d="M28.4005 25.4998H17.5605C16.7405 25.4998 16.0605 24.8198 16.0605 23.9998V15.3398C16.0605 14.5198 16.7405 13.8398 17.5605 13.8398H28.4005C31.5005 13.8398 34.2405 16.5598 34.2405 19.6798C34.2405 22.8798 31.6205 25.4998 28.4005 25.4998ZM19.0605 22.4998H28.4005C29.9605 22.4998 31.2405 21.2198 31.2405 19.6598C31.2405 18.3398 30.0005 16.8198 28.4005 16.8198H19.0605V22.4998Z" fill="#EB2A23"/>
<path d="M29.9405 34.16H17.5605C16.7405 34.16 16.0605 33.48 16.0605 32.66V24C16.0605 23.18 16.7405 22.5 17.5605 22.5H29.9405C33.5005 22.5 36.4005 25.12 36.4005 28.34C36.4005 31.56 33.5005 34.16 29.9405 34.16ZM19.0605 31.16H29.9405C31.8405 31.16 33.4005 29.88 33.4005 28.32C33.4005 26.76 31.8605 25.48 29.9405 25.48H19.0605V31.16Z" fill="#EB2A23"/>
<path d="M25.1406 38.5002C24.3206 38.5002 23.6406 37.8202 23.6406 37.0002V32.6602C23.6406 31.8402 24.3206 31.1602 25.1406 31.1602C25.9606 31.1602 26.6406 31.8402 26.6406 32.6602V37.0002C26.6406 37.8202 25.9806 38.5002 25.1406 38.5002Z" fill="#EB2A23"/>
<path d="M19.7402 38.4999C18.9202 38.4999 18.2402 37.8199 18.2402 36.9999V32.6599C18.2402 31.8399 18.9202 31.1599 19.7402 31.1599C20.5602 31.1599 21.2402 31.8399 21.2402 32.6599V36.9999C21.2402 37.8199 20.5602 38.4999 19.7402 38.4999Z" fill="#EB2A23"/>
<path d="M25.1406 16.84C24.3206 16.84 23.6406 16.16 23.6406 15.34V11C23.6406 10.18 24.3206 9.5 25.1406 9.5C25.9606 9.5 26.6406 10.18 26.6406 11V15.34C26.6406 16.16 25.9806 16.84 25.1406 16.84Z" fill="#EB2A23"/>
<path d="M19.7402 16.84C18.9202 16.84 18.2402 16.16 18.2402 15.34V11C18.2402 10.18 18.9202 9.5 19.7402 9.5C20.5602 9.5 21.2402 10.18 21.2402 11V15.34C21.2402 16.16 20.5602 16.84 19.7402 16.84Z" fill="#EB2A23"/>
<path d="M21.6796 16.8401H14.0996C13.2796 16.8401 12.5996 16.1601 12.5996 15.3401C12.5996 14.5201 13.2796 13.8401 14.0996 13.8401H21.6796C22.4996 13.8401 23.1796 14.5201 23.1796 15.3401C23.1796 16.1601 22.5196 16.8401 21.6796 16.8401Z" fill="#EB2A23"/>
<path d="M21.6796 34.1599H14.0996C13.2796 34.1599 12.5996 33.4799 12.5996 32.6599C12.5996 31.8399 13.2796 31.1599 14.0996 31.1599H21.6796C22.4996 31.1599 23.1796 31.8399 23.1796 32.6599C23.1796 33.4799 22.5196 34.1599 21.6796 34.1599Z" fill="#EB2A23"/>
</svg>
