<svg width="48" height="47" viewBox="0 0 48 47" fill="none" xmlns="http://www.w3.org/2000/svg">
<path d="M44 45.5H10C5.86 45.5 2.5 42.14 2.5 38V4C2.5 3.18 3.18 2.5 4 2.5C4.82 2.5 5.5 3.18 5.5 4V38C5.5 40.48 7.52 42.5 10 42.5H44C44.82 42.5 45.5 43.18 45.5 44C45.5 44.82 44.82 45.5 44 45.5Z" fill="#D92D20"/>
<path d="M9.99964 35.5001C9.65964 35.5001 9.29964 35.3801 9.01964 35.1401C8.39964 34.6001 8.31964 33.6602 8.85964 33.0202L18.0396 22.3001C19.0396 21.1401 20.4796 20.4401 21.9996 20.3801C23.5196 20.3401 25.0196 20.9001 26.0996 21.9801L27.9996 23.8801C28.4996 24.3801 29.1596 24.6201 29.8596 24.6201C30.5596 24.6001 31.1996 24.2801 31.6596 23.7401L40.8396 13.0202C41.3796 12.4002 42.3196 12.3201 42.9596 12.8601C43.5796 13.4001 43.6596 14.3401 43.1196 14.9801L33.9396 25.7001C32.9396 26.8601 31.4996 27.5601 29.9796 27.6201C28.4596 27.6601 26.9596 27.1002 25.8796 26.0202L23.9996 24.1201C23.4996 23.6201 22.8396 23.3601 22.1396 23.3801C21.4396 23.4001 20.7996 23.7201 20.3396 24.2601L11.1596 34.9801C10.8396 35.3201 10.4196 35.5001 9.99964 35.5001Z" fill="#D92D20"/>
</svg>
