<svg width="24" height="24" viewBox="0 0 24 24" fill="none" xmlns="http://www.w3.org/2000/svg">
<path d="M23.7161 11.929C23.7161 18.2412 18.5992 23.358 12.287 23.358C5.97486 23.358 0.858032 18.2412 0.858032 11.929C0.858032 5.61682 5.97486 0.5 12.287 0.5C18.5992 0.5 23.7161 5.61682 23.7161 11.929Z" fill="#000"/>
<path d="M16.9631 7.33128C16.1319 6.94378 15.2319 6.66253 14.2944 6.50003C14.2862 6.49977 14.278 6.50131 14.2704 6.50455C14.2629 6.50779 14.2561 6.51265 14.2506 6.51878C14.1381 6.72503 14.0069 6.99378 13.9194 7.20003C12.925 7.05003 11.9138 7.05003 10.9194 7.20003C10.8319 6.98753 10.7006 6.72503 10.5819 6.51878C10.5756 6.50628 10.5569 6.50003 10.5381 6.50003C9.60063 6.66253 8.70688 6.94378 7.86938 7.33128C7.86313 7.33128 7.85688 7.33753 7.85063 7.34378C6.15063 9.88753 5.68188 12.3625 5.91313 14.8125C5.91313 14.825 5.91938 14.8375 5.93188 14.8438C7.05688 15.6688 8.13813 16.1688 9.20688 16.5C9.22563 16.5063 9.24438 16.5 9.25063 16.4875C9.50063 16.1438 9.72563 15.7813 9.91938 15.4C9.93188 15.375 9.91938 15.35 9.89438 15.3438C9.53813 15.2063 9.20063 15.0438 8.86939 14.8563C8.84438 14.8438 8.84438 14.8063 8.86313 14.7875C8.93188 14.7375 9.00063 14.6813 9.06938 14.6313C9.08188 14.6188 9.10063 14.6188 9.11313 14.625C11.2631 15.6063 13.5819 15.6063 15.7069 14.625C15.7194 14.6188 15.7381 14.6188 15.7506 14.6313C15.8194 14.6875 15.8881 14.7375 15.9569 14.7938C15.9819 14.8125 15.9819 14.85 15.9506 14.8625C15.6256 15.0563 15.2819 15.2125 14.9256 15.35C14.9006 15.3563 14.8944 15.3875 14.9006 15.4063C15.1006 15.7875 15.3256 16.15 15.5694 16.4938C15.5881 16.5 15.6069 16.5063 15.6256 16.5C16.7006 16.1688 17.7819 15.6688 18.9069 14.8438C18.9194 14.8375 18.9256 14.825 18.9256 14.8125C19.2006 11.9813 18.4694 9.52503 16.9881 7.34378C16.9819 7.33753 16.9756 7.33128 16.9631 7.33128ZM10.2444 13.3188C9.60064 13.3188 9.06313 12.725 9.06313 11.9938C9.06313 11.2625 9.58814 10.6688 10.2444 10.6688C10.9069 10.6688 11.4319 11.2688 11.4256 11.9938C11.4256 12.725 10.9006 13.3188 10.2444 13.3188ZM14.6006 13.3188C13.9569 13.3188 13.4194 12.725 13.4194 11.9938C13.4194 11.2625 13.9444 10.6688 14.6006 10.6688C15.2631 10.6688 15.7881 11.2688 15.7819 11.9938C15.7819 12.725 15.2631 13.3188 14.6006 13.3188Z" fill="white"/>
</svg>
