<svg width="310" height="100" viewBox="0 0 310 100" fill="none" xmlns="http://www.w3.org/2000/svg">
<g filter="url(#filter0_b_263_2105)">
<path d="M64.0821 63.6442L53.4059 68.299V67.8292C51.3561 68.3417 49.0501 68.6406 46.9149 68.7687C36.8366 68.6833 28.8936 63.388 28.7655 57.1531V54.8471C32.0537 59.63 38.801 62.8755 46.9149 62.7474C49.648 62.8755 52.4664 62.4485 54.8152 61.8079L55.7547 59.5019C52.9789 60.3559 49.9042 60.9111 46.9149 60.9111C36.8366 60.9111 28.8936 55.6585 28.7655 49.2955V47.4165C32.0537 51.8578 38.801 55.0606 46.9149 54.8471C50.5875 55.0606 54.1319 54.2919 57.1639 52.9681L57.6337 50.662C54.6871 52.1994 50.8864 53.0962 46.9576 52.9681C36.8793 53.0962 28.9363 47.8435 28.8082 41.3525V39.4735C32.0964 44.0001 38.8437 47.2457 46.9576 47.3738C51.5697 47.2457 55.9255 46.0072 59.5127 44.1282L59.9824 41.3525C56.7369 43.7439 51.9967 45.324 46.9576 45.5375C36.8793 45.324 28.9363 40.0286 28.8082 33.4521C28.8936 27.1746 36.8793 21.9219 46.9576 21.8365C52.9362 21.9219 58.5305 24.0144 61.8187 27.4308L62.1604 27.986H64.5091L64.1675 27.4308C60.8792 22.9468 54.26 20.0002 46.9576 20.0002C35.769 19.9575 26.8865 26.0643 26.8865 33.4094V33.8792V57.5802C27.2708 64.7545 35.9398 70.605 46.8722 70.605C54.0892 70.6477 60.623 67.7865 64.0821 63.6442Z" fill="#263238"/>
<path d="M59.7262 80L63.4842 64.0285L52.68 68.726L59.2565 41.0535H46.616L49.9042 27.4308H90.2599L86.9717 41.0535H73.8187L71.0002 48.5695L85.5624 42.4628L59.7262 80ZM66.3027 60.783L64.4237 70.178L79.9255 46.7332L67.2422 52.3702L72.8792 39.2172H85.5624L87.9112 29.3525H51.2708L48.922 39.2172H61.6052L55.4985 65.4805L66.3027 60.783Z" fill="#FABF2C"/>
<path d="M117.036 36.6123C117.078 38.1069 116.609 39.2599 115.669 40.114C114.73 40.9681 113.448 41.3952 111.783 41.3952C110.118 41.3952 108.751 40.84 107.726 39.7724C106.701 38.7048 106.189 37.2955 106.189 35.5874V32.8116C106.189 31.1034 106.701 29.6941 107.683 28.6265C108.708 27.5589 110.032 27.0038 111.655 27.0038C113.363 27.0038 114.687 27.4308 115.669 28.2422C116.651 29.0963 117.121 30.2493 117.078 31.744V31.7867H114.345C114.345 30.8899 114.132 30.2066 113.705 29.7796C113.278 29.3525 112.594 29.139 111.698 29.139C110.844 29.139 110.203 29.4806 109.733 30.1639C109.263 30.8472 109.007 31.7013 109.007 32.7689V35.5874C109.007 36.655 109.263 37.5518 109.733 38.235C110.246 38.9183 110.929 39.2599 111.826 39.2599C112.68 39.2599 113.278 39.0464 113.705 38.6194C114.132 38.1923 114.345 37.5091 114.345 36.6123H117.036ZM132.495 35.4592C132.495 37.1674 131.94 38.6194 130.872 39.7297C129.804 40.84 128.395 41.3952 126.644 41.3952C124.893 41.3952 123.527 40.84 122.416 39.7297C121.349 38.6194 120.794 37.1674 120.794 35.4592V32.9397C120.794 31.2315 121.349 29.8223 122.416 28.6692C123.484 27.5589 124.893 26.9611 126.601 26.9611C128.352 26.9611 129.762 27.5162 130.829 28.6692C131.94 29.7796 132.452 31.2315 132.452 32.9397V35.4592H132.495ZM129.676 32.897C129.676 31.7867 129.42 30.9326 128.865 30.2066C128.31 29.5233 127.584 29.139 126.601 29.139C125.662 29.139 124.893 29.4806 124.381 30.2066C123.868 30.8899 123.569 31.7867 123.569 32.897V35.4165C123.569 36.5269 123.826 37.4237 124.381 38.1496C124.893 38.8329 125.662 39.2172 126.601 39.2172C127.584 39.2172 128.31 38.8756 128.865 38.1496C129.42 37.4664 129.676 36.5269 129.676 35.4165V32.897ZM139.754 41.1816H136.936V27.1746H139.754V41.1816ZM155.939 41.1816H153.121L147.484 31.744H147.441V41.1816H144.623V27.1746H147.441L153.078 36.6123H153.121V27.1746H155.939V41.1816ZM170.075 29.3525H166.06V41.1816H163.242V29.3525H159.313V27.1746H170.075V29.3525ZM181.69 35.0322H176.48V39.0464H182.672V41.1816H173.704V27.1746H182.672V29.3525H176.523V32.8543H181.733V35.0322H181.69ZM189.505 39.0464H195.783V41.1816H186.687V27.1746H189.505V39.0464ZM207.74 35.0322H202.53V39.0464H208.722V41.1816H199.754V27.1746H208.722V29.3525H202.573V32.8543H207.783V35.0322H207.74ZM223.498 39.3027C223.071 39.8578 222.43 40.3703 221.534 40.7973C220.679 41.2244 219.569 41.4379 218.203 41.4379C216.494 41.4379 215.128 40.9254 214.06 39.8578C212.993 38.7902 212.437 37.4237 212.437 35.7155V32.7689C212.437 31.0607 212.95 29.6941 214.018 28.6265C215.042 27.5589 216.409 27.0038 218.032 27.0038C219.74 27.0038 221.064 27.4308 221.961 28.2422C222.857 29.0536 223.327 30.1212 223.284 31.4877V31.5304H220.637C220.637 30.8045 220.423 30.2066 219.996 29.7796C219.569 29.3525 218.929 29.139 218.117 29.139C217.263 29.139 216.58 29.4806 216.025 30.1212C215.512 30.8045 215.256 31.6586 215.256 32.6835V35.6301C215.256 36.6977 215.512 37.5518 216.067 38.235C216.622 38.9183 217.348 39.2172 218.245 39.2172C218.929 39.2172 219.441 39.1318 219.825 39.0037C220.21 38.8756 220.509 38.7048 220.722 38.4913V35.7582H218.032V33.7938H223.541V39.3027H223.498ZM230.758 35.5874V41.1816H227.939V27.1746H232.807C234.388 27.1746 235.669 27.5589 236.565 28.2849C237.462 29.0109 237.932 30.0358 237.932 31.3169C237.932 32.0429 237.761 32.6408 237.377 33.1959C236.993 33.7084 236.437 34.1354 235.711 34.4771C236.523 34.7333 237.121 35.1176 237.505 35.7155C237.847 36.2706 238.06 36.9966 238.06 37.8507V38.8756C238.06 39.2599 238.103 39.687 238.231 40.114C238.316 40.5411 238.53 40.84 238.786 41.0535V41.2671H235.882C235.626 41.0535 235.455 40.7119 235.37 40.2422C235.284 39.7724 235.242 39.3027 235.242 38.8756V37.8934C235.242 37.2101 235.071 36.655 234.686 36.2706C234.302 35.8863 233.747 35.6728 233.064 35.6728H230.758V35.5874ZM230.758 33.4521H232.765C233.533 33.4521 234.131 33.2813 234.516 32.9397C234.9 32.5981 235.114 32.1283 235.114 31.445C235.114 30.8045 234.9 30.292 234.516 29.9077C234.131 29.5233 233.576 29.3525 232.807 29.3525H230.758V33.4521ZM249.847 38.1923H245.32L244.38 41.2244H241.434L246.174 27.2173H249.035L253.733 41.2244H250.786L249.847 38.1923ZM246.003 35.9717H249.163L247.626 31.018H247.583L246.003 35.9717ZM259.968 36.0998V41.1816H257.149V27.1746H262.53C264.153 27.1746 265.391 27.6016 266.331 28.413C267.27 29.2244 267.697 30.3347 267.697 31.6586C267.697 32.9824 267.227 34.0927 266.331 34.9041C265.391 35.7155 264.153 36.1425 262.53 36.1425H259.968V36.0998ZM259.968 33.9646H262.53C263.298 33.9646 263.896 33.7511 264.323 33.324C264.708 32.897 264.921 32.3418 264.921 31.7013C264.921 31.018 264.708 30.4628 264.323 30.0358C263.939 29.6087 263.341 29.3952 262.53 29.3952H259.968V33.9646ZM283.113 41.1816H280.295V35.3738H274.572V41.1816H271.754V27.1746H274.572V33.1959H280.295V27.1746H283.113V41.1816Z" fill="#263238"/>
<path d="M111.313 64.0712H109.562V54.8471H106.402V53.3524H114.473V54.8471H111.313V64.0712ZM123.057 64.0712H121.306V59.0748C121.306 58.4342 121.178 57.9645 120.922 57.6656C120.665 57.3666 120.281 57.1958 119.726 57.1958C119 57.1958 118.487 57.4093 118.146 57.8364C117.804 58.2634 117.633 58.9894 117.633 60.0143V64.0285H115.925V52.6264H117.633V55.5303C117.633 56.0001 117.591 56.4698 117.548 57.025H117.676C117.89 56.6407 118.231 56.3417 118.658 56.1282C119.085 55.9147 119.555 55.7866 120.11 55.7866C122.075 55.7866 123.057 56.7688 123.057 58.7759V64.0712ZM128.993 64.1993C127.712 64.1993 126.729 63.815 126.046 63.089C125.32 62.3631 124.979 61.3382 124.979 60.057C124.979 58.7332 125.32 57.7083 125.961 56.9396C126.601 56.1709 127.541 55.7866 128.694 55.7866C129.761 55.7866 130.616 56.1282 131.213 56.7688C131.854 57.4093 132.153 58.3061 132.153 59.4592V60.3987H126.729C126.772 61.1673 126.986 61.8079 127.37 62.1922C127.754 62.6193 128.352 62.8328 129.078 62.8328C129.548 62.8328 130.018 62.7901 130.402 62.7047C130.829 62.6193 131.256 62.4485 131.726 62.235V63.6442C131.299 63.8577 130.872 63.9858 130.445 64.0712C130.06 64.1566 129.548 64.1993 128.993 64.1993ZM128.694 57.1104C128.139 57.1104 127.712 57.2812 127.37 57.6229C127.028 57.9645 126.858 58.477 126.772 59.1602H130.445C130.445 58.477 130.274 57.9645 129.975 57.6229C129.676 57.2812 129.249 57.1104 128.694 57.1104ZM142.06 57.2385H140.096V64.0712H138.345V57.2385H137.021V56.4271L138.345 55.9147V55.4022C138.345 54.4627 138.559 53.7368 139.028 53.267C139.498 52.7973 140.181 52.5837 141.078 52.5837C141.676 52.5837 142.274 52.6691 142.872 52.8827L142.402 54.2065C141.975 54.0784 141.591 53.993 141.164 53.993C140.779 53.993 140.48 54.1211 140.309 54.3346C140.139 54.5909 140.053 54.9325 140.053 55.4022V55.9147H142.018V57.2385H142.06ZM149.192 64.0712L148.936 63.0036H148.85C148.594 63.388 148.252 63.6869 147.825 63.9004C147.398 64.1139 146.886 64.2421 146.331 64.2421C145.349 64.2421 144.623 63.9858 144.11 63.5161C143.598 63.0463 143.384 62.2777 143.384 61.2955V55.9574H145.135V60.9538C145.135 61.5944 145.263 62.0214 145.519 62.3631C145.776 62.662 146.16 62.8328 146.715 62.8328C147.441 62.8328 147.954 62.6193 148.295 62.1922C148.637 61.7652 148.808 61.0392 148.808 60.0143V55.9574H150.559V64.0712H149.192ZM156.025 62.7901C156.452 62.7901 156.879 62.7047 157.306 62.5766V63.8577C157.135 63.9431 156.879 64.0285 156.58 64.0712C156.281 64.1139 155.982 64.1567 155.64 64.1567C154.018 64.1567 153.206 63.3026 153.206 61.5944V57.2385H152.096V56.4698L153.292 55.8293L153.889 54.1211H154.957V55.9147H157.263V57.2385H154.957V61.5944C154.957 62.0214 155.042 62.3204 155.256 62.5339C155.384 62.7047 155.683 62.7901 156.025 62.7901ZM164.608 64.0712L164.352 63.0036H164.267C164.01 63.388 163.669 63.6869 163.242 63.9004C162.815 64.1139 162.302 64.2421 161.747 64.2421C160.765 64.2421 160.039 63.9858 159.526 63.5161C159.057 63.0463 158.8 62.2777 158.8 61.2955V55.9574H160.551V60.9538C160.551 61.5944 160.679 62.0214 160.936 62.3631C161.192 62.662 161.576 62.8328 162.131 62.8328C162.857 62.8328 163.37 62.6193 163.712 62.1922C164.053 61.7652 164.224 61.0392 164.224 60.0143V55.9574H165.975V64.0712H164.608ZM172.551 55.7866C172.893 55.7866 173.192 55.8293 173.405 55.872L173.235 57.4948C172.978 57.4521 172.722 57.4093 172.466 57.4093C171.783 57.4093 171.227 57.6229 170.8 58.0926C170.373 58.5624 170.16 59.1175 170.16 59.8435V64.0712H168.452V55.9574H169.818L170.032 57.3666H170.117C170.373 56.8969 170.758 56.5126 171.185 56.2136C171.569 55.9574 172.039 55.7866 172.551 55.7866ZM178.146 64.1993C176.864 64.1993 175.882 63.815 175.199 63.089C174.473 62.3631 174.131 61.3382 174.131 60.057C174.131 58.7332 174.473 57.7083 175.114 56.9396C175.754 56.1709 176.694 55.7866 177.847 55.7866C178.914 55.7866 179.768 56.1282 180.366 56.7688C181.007 57.4093 181.306 58.3061 181.306 59.4592V60.3987H175.882C175.925 61.1673 176.139 61.8079 176.523 62.1922C176.907 62.6193 177.505 62.8328 178.231 62.8328C178.701 62.8328 179.171 62.7901 179.555 62.7047C179.982 62.6193 180.409 62.4485 180.879 62.235V63.6442C180.452 63.8577 180.025 63.9858 179.598 64.0712C179.171 64.1566 178.701 64.1993 178.146 64.1993ZM177.847 57.1104C177.292 57.1104 176.864 57.2812 176.523 57.6229C176.181 57.9645 176.01 58.477 175.925 59.1602H179.598C179.598 58.477 179.427 57.9645 179.128 57.6229C178.786 57.2812 178.359 57.1104 177.847 57.1104ZM194.331 59.9716C194.331 61.2954 193.989 62.3204 193.306 63.089C192.622 63.815 191.683 64.1993 190.487 64.1993C189.719 64.1993 189.078 64.0285 188.48 63.6869C187.882 63.3453 187.455 62.8328 187.156 62.1922C186.857 61.5517 186.687 60.8257 186.687 59.9716C186.687 58.6478 187.028 57.6229 187.711 56.8969C188.395 56.1709 189.334 55.7866 190.573 55.7866C191.726 55.7866 192.665 56.1709 193.348 56.9396C194.032 57.7083 194.331 58.6905 194.331 59.9716ZM188.437 59.9716C188.437 61.8506 189.121 62.7901 190.53 62.7901C191.896 62.7901 192.58 61.8506 192.58 59.9716C192.58 58.1353 191.896 57.1958 190.53 57.1958C189.804 57.1958 189.291 57.4521 188.95 57.9218C188.608 58.3915 188.437 59.0748 188.437 59.9716ZM200.395 57.2385H198.43V64.0712H196.679V57.2385H195.356V56.4271L196.679 55.9147V55.4022C196.679 54.4627 196.893 53.7368 197.363 53.267C197.832 52.7973 198.516 52.5837 199.412 52.5837C200.01 52.5837 200.608 52.6691 201.206 52.8827L200.736 54.2065C200.309 54.0784 199.925 53.993 199.498 53.993C199.114 53.993 198.815 54.1211 198.644 54.3346C198.473 54.5481 198.388 54.9325 198.388 55.4022V55.9147H200.352V57.2385H200.395ZM212.523 64.0712H210.772V59.0748C210.772 58.4342 210.644 58.0072 210.43 57.6656C210.217 57.3666 209.832 57.1958 209.32 57.1958C208.637 57.1958 208.167 57.4093 207.868 57.8364C207.569 58.2634 207.398 58.9894 207.398 60.0143V64.0712H205.69V55.9574H207.057L207.313 57.025H207.398C207.612 56.6407 207.953 56.3417 208.38 56.1282C208.807 55.9147 209.277 55.8293 209.79 55.8293C211.028 55.8293 211.882 56.2563 212.266 57.1104H212.395C212.651 56.7261 212.992 56.3844 213.42 56.1709C213.847 55.9574 214.359 55.8293 214.914 55.8293C215.896 55.8293 216.58 56.0855 217.049 56.5553C217.476 57.025 217.733 57.7937 217.733 58.7759V64.0712H216.024V59.0748C216.024 58.4342 215.896 58.0072 215.683 57.6656C215.427 57.3666 215.085 57.1958 214.573 57.1958C213.889 57.1958 213.42 57.4093 213.121 57.8364C212.822 58.2634 212.651 58.904 212.651 59.7581V64.0712H212.523ZM227.213 59.9716C227.213 61.2954 226.871 62.3204 226.188 63.089C225.505 63.815 224.565 64.1993 223.37 64.1993C222.601 64.1993 221.96 64.0285 221.363 63.6869C220.765 63.3453 220.338 62.8328 220.039 62.1922C219.74 61.5517 219.569 60.8257 219.569 59.9716C219.569 58.6478 219.911 57.6229 220.594 56.8969C221.277 56.1709 222.217 55.7866 223.455 55.7866C224.608 55.7866 225.548 56.1709 226.231 56.9396C226.871 57.7083 227.213 58.6905 227.213 59.9716ZM221.32 59.9716C221.32 61.8506 222.003 62.7901 223.412 62.7901C224.779 62.7901 225.462 61.8506 225.462 59.9716C225.462 58.1353 224.779 57.1958 223.412 57.1958C222.686 57.1958 222.174 57.4521 221.832 57.9218C221.491 58.3915 221.32 59.0748 221.32 59.9716ZM236.352 64.0712H234.601V59.0748C234.601 58.4342 234.473 57.9645 234.217 57.6656C233.96 57.3666 233.576 57.1958 233.021 57.1958C232.295 57.1958 231.74 57.4093 231.441 57.8364C231.142 58.2634 230.928 58.9894 230.928 60.0143V64.0712H229.22V55.9574H230.587L230.843 57.025H230.928C231.185 56.6407 231.526 56.3417 231.953 56.1282C232.38 55.9147 232.893 55.8293 233.448 55.8293C235.412 55.8293 236.352 56.8115 236.352 58.8186V64.0712ZM242.288 64.1993C241.007 64.1993 240.024 63.815 239.341 63.089C238.615 62.3631 238.274 61.3382 238.274 60.057C238.274 58.7332 238.615 57.7083 239.256 56.9396C239.896 56.1709 240.836 55.7866 241.989 55.7866C243.056 55.7866 243.911 56.1282 244.508 56.7688C245.149 57.4093 245.448 58.3061 245.448 59.4592V60.3987H240.024C240.067 61.1673 240.281 61.8079 240.665 62.1922C241.049 62.6193 241.647 62.8328 242.373 62.8328C242.843 62.8328 243.313 62.7901 243.697 62.7047C244.081 62.6193 244.551 62.4485 245.021 62.235V63.6442C244.594 63.8577 244.167 63.9858 243.74 64.0712C243.313 64.1566 242.843 64.1993 242.288 64.1993ZM241.946 57.1104C241.391 57.1104 240.964 57.2812 240.622 57.6229C240.281 57.9645 240.11 58.477 240.024 59.1602H243.697C243.697 58.477 243.526 57.9645 243.227 57.6229C242.928 57.2812 242.501 57.1104 241.946 57.1104ZM245.875 55.9574H247.754L249.419 60.5695C249.676 61.21 249.846 61.8506 249.932 62.4058H249.975C250.017 62.1495 250.103 61.8079 250.231 61.4236C250.359 61.0392 250.957 59.2029 252.11 55.9574H253.989L250.53 65.1389C249.889 66.8043 248.864 67.6584 247.37 67.6584C246.985 67.6584 246.601 67.6157 246.259 67.5303V66.1638C246.515 66.2065 246.814 66.2492 247.156 66.2492C247.967 66.2492 248.565 65.7794 248.907 64.7972L249.206 64.0285L245.875 55.9574Z" fill="#263238"/>
</g>
<defs>
<filter id="filter0_b_263_2105" x="-42" y="-42" width="394" height="184" filterUnits="userSpaceOnUse" color-interpolation-filters="sRGB">
<feFlood flood-opacity="0" result="BackgroundImageFix"/>
<feGaussianBlur in="BackgroundImageFix" stdDeviation="21"/>
<feComposite in2="SourceAlpha" operator="in" result="effect1_backgroundBlur_263_2105"/>
<feBlend mode="normal" in="SourceGraphic" in2="effect1_backgroundBlur_263_2105" result="shape"/>
</filter>
</defs>
</svg>
