<svg width="310" height="100" viewBox="0 0 310 100" fill="none" xmlns="http://www.w3.org/2000/svg">
<g filter="url(#filter0_b_263_2141)">
<g clip-path="url(#clip0_263_2141)">
<path d="M107.849 42.5759H98.4701V66.4735H91.7034V42.5759H82.3672V36.1091H107.849V42.5759Z" fill="#1C2642"/>
<path d="M110.252 53.2827H118.774C118.717 52.3121 118.332 51.4698 117.618 50.756C116.933 50.0421 115.891 49.6852 114.492 49.6852C113.235 49.6852 112.236 50.0565 111.494 50.7987C110.751 51.5411 110.337 52.3691 110.252 53.2827ZM119.245 58.8075L124.684 60.3493C124.142 62.3193 123.014 63.9468 121.301 65.2316C119.588 66.4878 117.447 67.1159 114.877 67.1159C111.793 67.1159 109.167 66.0881 106.997 64.0324C104.855 61.9766 103.785 59.2214 103.785 55.7667C103.785 52.4548 104.827 49.7567 106.911 47.6724C109.024 45.5881 111.522 44.5461 114.406 44.5461C117.718 44.5461 120.316 45.5169 122.2 47.4582C124.113 49.3712 125.07 52.0407 125.07 55.467C125.07 56.5519 125.027 57.2228 124.941 57.4798H110.123C110.18 58.6504 110.68 59.6355 111.622 60.4349C112.564 61.2058 113.678 61.5913 114.963 61.5913C117.161 61.5913 118.589 60.6633 119.245 58.8075Z" fill="#1C2642"/>
<path d="M136.915 50.5419C135.516 50.5419 134.346 51.0129 133.403 51.9552C132.49 52.8973 132.033 54.1964 132.033 55.8523C132.033 57.4798 132.504 58.7646 133.446 59.7068C134.417 60.649 135.602 61.1201 137.001 61.1201C138.171 61.1201 139.128 60.8203 139.87 60.2208C140.641 59.5927 141.155 58.8361 141.412 57.951L147.151 59.7068C146.637 61.734 145.481 63.4756 143.682 64.9317C141.912 66.3879 139.685 67.1159 137.001 67.1159C133.803 67.1159 131.091 66.0595 128.864 63.9468C126.665 61.8053 125.566 59.1073 125.566 55.8523C125.566 52.5689 126.637 49.8709 128.778 47.7581C130.948 45.6167 133.618 44.5461 136.787 44.5461C139.556 44.5461 141.826 45.2599 143.596 46.6874C145.366 48.1149 146.508 49.8709 147.022 51.9552L141.198 53.711C140.941 52.7973 140.456 52.0407 139.742 51.4412C139.028 50.8415 138.086 50.5419 136.915 50.5419Z" fill="#1C2642"/>
<path d="M155.483 53.968V66.4735H148.973V35.4667H155.483V46.5589C156.768 45.2741 158.581 44.6317 160.922 44.6317C163.577 44.6317 165.576 45.4312 166.917 47.03C168.288 48.6003 168.974 50.6275 168.974 53.1115V66.4735H162.464V54.225C162.464 53.1115 162.164 52.2264 161.564 51.5697C160.993 50.8844 160.137 50.5418 158.995 50.5418C157.995 50.5418 157.167 50.8701 156.511 51.5268C155.883 52.1549 155.54 52.9686 155.483 53.968Z" fill="#1C2642"/>
<path d="M182.067 61.1201C183.408 61.1201 184.536 60.6633 185.45 59.7496C186.391 58.8361 186.864 57.5226 186.864 55.8095C186.864 54.0965 186.391 52.7973 185.45 51.9124C184.536 50.9986 183.408 50.5419 182.067 50.5419C180.753 50.5419 179.626 50.9986 178.683 51.9124C177.742 52.8259 177.269 54.125 177.269 55.8095C177.269 57.494 177.742 58.8075 178.683 59.7496C179.626 60.6633 180.753 61.1201 182.067 61.1201ZM182.067 44.5461C185.293 44.5461 187.976 45.6024 190.118 47.7152C192.288 49.8281 193.373 52.5261 193.373 55.8095C193.373 59.0929 192.288 61.8053 190.118 63.9468C187.976 66.0595 185.293 67.1159 182.067 67.1159C178.869 67.1159 176.184 66.0452 174.015 63.9039C171.845 61.7625 170.76 59.0645 170.76 55.8095C170.76 52.5547 171.845 49.8709 174.015 47.7581C176.184 45.6167 178.869 44.5461 182.067 44.5461Z" fill="#1C2642"/>
<path d="M201.932 74.6106H195.423V45.1884H201.718V47.3726C202.203 46.6303 203.003 46.0021 204.116 45.4882C205.258 44.9458 206.543 44.6746 207.97 44.6746C210.997 44.6746 213.396 45.7166 215.165 47.8009C216.965 49.8565 217.864 52.5118 217.864 55.7666C217.864 59.0216 216.907 61.7054 214.994 63.8182C213.11 65.9025 210.684 66.9445 207.714 66.9445C205.029 66.9445 203.102 66.2308 201.932 64.8032V74.6106ZM210.069 59.7496C211.012 58.8074 211.483 57.494 211.483 55.8095C211.483 54.1249 211.012 52.8259 210.069 51.9123C209.155 50.9986 208.014 50.5418 206.643 50.5418C205.302 50.5418 204.159 50.9986 203.217 51.9123C202.303 52.8259 201.846 54.1249 201.846 55.8095C201.846 57.494 202.303 58.8074 203.217 59.7496C204.159 60.6633 205.302 61.1201 206.643 61.1201C208.014 61.1201 209.155 60.6633 210.069 59.7496Z" fill="#1C2642"/>
<path d="M224.847 53.2827H233.37C233.314 52.3121 232.928 51.4698 232.213 50.756C231.529 50.0421 230.486 49.6852 229.088 49.6852C227.832 49.6852 226.831 50.0565 226.09 50.7987C225.347 51.5411 224.933 52.3691 224.847 53.2827ZM233.842 58.8075L239.28 60.3493C238.738 62.3193 237.611 63.9468 235.897 65.2316C234.184 66.4878 232.042 67.1159 229.472 67.1159C226.389 67.1159 223.762 66.0881 221.593 64.0324C219.451 61.9766 218.38 59.2214 218.38 55.7667C218.38 52.4548 219.423 49.7567 221.507 47.6724C223.62 45.5881 226.118 44.5461 229.002 44.5461C232.313 44.5461 234.912 45.5169 236.796 47.4582C238.709 49.3712 239.666 52.0407 239.666 55.467C239.666 56.5519 239.624 57.2228 239.537 57.4798H224.718C224.776 58.6504 225.275 59.6355 226.218 60.4349C227.16 61.2058 228.274 61.5913 229.559 61.5913C231.756 61.5913 233.185 60.6633 233.842 58.8075Z" fill="#1C2642"/>
<path d="M262.647 35.4667V62.6619C262.647 63.9467 262.703 65.2172 262.818 66.4735H256.564C256.451 65.7882 256.393 65.1031 256.393 64.4177C255.88 65.1601 255.108 65.774 254.08 66.2594C253.081 66.7162 251.954 66.9445 250.698 66.9445C247.671 66.9445 245.158 65.9025 243.16 63.8182C241.161 61.7054 240.162 59.0216 240.162 55.7666C240.162 52.5689 241.132 49.928 243.074 47.8437C245.016 45.7308 247.486 44.6746 250.483 44.6746C253.396 44.6746 255.308 45.4026 256.222 46.8587V35.4667H262.647ZM248.085 51.9123C247.171 52.8259 246.714 54.1249 246.714 55.8095C246.714 57.494 247.171 58.8074 248.085 59.7496C249.027 60.6633 250.169 61.1201 251.51 61.1201C252.853 61.1201 253.98 60.6633 254.895 59.7496C255.836 58.8074 256.308 57.494 256.308 55.8095C256.308 54.1249 255.836 52.8259 254.895 51.9123C253.98 50.9986 252.853 50.5418 251.51 50.5418C250.169 50.5418 249.027 50.9986 248.085 51.9123Z" fill="#1C2642"/>
<path d="M272.881 66.4735H266.371V45.1884H272.881V66.4735ZM266.928 41.3767C266.185 40.6345 265.814 39.735 265.814 38.6786C265.814 37.6223 266.185 36.7229 266.928 35.9806C267.67 35.2382 268.555 34.8671 269.583 34.8671C270.64 34.8671 271.539 35.2382 272.282 35.9806C273.052 36.7229 273.438 37.6223 273.438 38.6786C273.438 39.735 273.052 40.6345 272.282 41.3767C271.539 42.1191 270.64 42.4902 269.583 42.4902C268.555 42.4902 267.67 42.1191 266.928 41.3767Z" fill="#1C2642"/>
<path d="M275.158 60.6061C275.158 58.8075 275.743 57.3655 276.913 56.2807C278.083 55.1672 279.597 54.4676 281.452 54.1822L286.464 53.4112C287.491 53.2685 288.006 52.7831 288.006 51.9552C288.006 51.2985 287.72 50.756 287.149 50.3277C286.606 49.8709 285.851 49.6424 284.879 49.6424C283.794 49.6424 282.924 49.9566 282.267 50.5847C281.639 51.1842 281.297 51.9124 281.239 52.7688L275.586 51.6125C275.728 49.8423 276.6 48.2292 278.198 46.7731C279.825 45.2883 282.067 44.5461 284.921 44.5461C288.148 44.5461 290.518 45.3169 292.032 46.8587C293.573 48.4004 294.345 50.3705 294.345 52.7688V63.1758C294.345 64.5177 294.429 65.6169 294.6 66.4736H288.734C288.592 65.9025 288.519 65.1031 288.519 64.0753C287.292 66.0738 285.294 67.0731 282.524 67.0731C280.269 67.0731 278.469 66.445 277.128 65.1887C275.815 63.9039 275.158 62.3763 275.158 60.6061ZM284.109 62.3621C285.223 62.3621 286.15 62.0338 286.892 61.3771C287.635 60.7204 288.006 59.6355 288.006 58.1221V57.18L283.98 57.8225C282.382 58.0793 281.581 58.8645 281.581 60.178C281.581 60.7775 281.781 61.2914 282.18 61.7196C282.609 62.1479 283.252 62.3621 284.109 62.3621Z" fill="#1C2642"/>
<path d="M51.5719 53.8802C51.5722 54.2498 51.6697 54.6129 51.8545 54.933C52.0394 55.2529 52.3052 55.5187 52.6253 55.7035L59.2557 59.5309C59.5757 59.7154 59.9386 59.8124 60.3079 59.8122C60.6772 59.8121 61.04 59.7146 61.3597 59.53C61.6795 59.3452 61.9451 59.0796 62.1296 58.7596C62.3142 58.4398 62.4114 58.0769 62.4114 57.7076V37.5351C62.4114 37.1661 62.3144 36.8035 62.1299 36.4838C61.9454 36.1641 61.6799 35.8987 61.3603 35.7141L43.8904 25.6335C43.5706 25.4491 43.2079 25.3521 42.8388 25.3522C42.4698 25.3522 42.1072 25.4494 41.7874 25.6339C41.4677 25.8184 41.2021 26.0838 41.0174 26.4033C40.8326 26.7229 40.7352 27.0854 40.7349 27.4546V35.1116C40.735 35.4809 40.8322 35.8437 41.0167 36.1637C41.2012 36.4837 41.4663 36.7496 41.786 36.9349L50.5187 41.9719C50.8386 42.156 51.1042 42.4214 51.2887 42.7412C51.4734 43.061 51.5703 43.4238 51.5698 43.7929L51.5719 53.8802Z" fill="#82A5FF"/>
<path d="M38.6255 51.2691V61.3564C38.6253 61.7258 38.7224 62.0887 38.9069 62.4088C39.0914 62.729 39.3568 62.9947 39.6766 63.1797L46.307 67.0071C46.627 67.1916 46.9899 67.2886 47.3592 67.2884C47.7285 67.2881 48.0913 67.1908 48.4111 67.006C48.7309 66.8213 48.9964 66.5556 49.181 66.2358C49.3655 65.916 49.4627 65.553 49.4627 65.1837V45.0113C49.4626 44.6417 49.3651 44.2786 49.1801 43.9587C48.9953 43.6386 48.7294 43.3728 48.4093 43.188L30.9418 33.1029C30.622 32.9179 30.2592 32.8203 29.8899 32.82C29.5205 32.8197 29.1576 32.9168 28.8376 33.1014C28.5177 33.2861 28.252 33.5517 28.0675 33.8717C27.8828 34.1917 27.7858 34.5546 27.7861 34.924V42.5811C27.7856 42.9502 27.8825 43.313 28.0671 43.6328C28.2516 43.9525 28.5173 44.2179 28.8373 44.4021L37.5744 49.4458C37.894 49.6309 38.1595 49.8968 38.344 50.2167C38.5285 50.5367 38.6255 50.8996 38.6255 51.2691Z" fill="#0077CC"/>
<path d="M35.4633 50.6641L17.9935 40.5858C17.6736 40.4013 17.3107 40.3043 16.9414 40.3044C16.5721 40.3046 16.2093 40.4019 15.8895 40.5867C15.5698 40.7715 15.3042 41.0371 15.1196 41.3571C14.935 41.6769 14.8379 42.0397 14.8379 42.409V62.5837C14.8378 62.9528 14.9349 63.3154 15.1194 63.6351C15.3039 63.9548 15.5694 64.2202 15.889 64.4047L26.7284 70.6536L33.3589 74.4809C33.6786 74.666 34.0414 74.7637 34.4106 74.7638C34.7801 74.7641 35.143 74.6671 35.463 74.4825C35.783 74.2978 36.0486 74.0322 36.2332 73.7122C36.4177 73.3923 36.5147 73.0292 36.5144 72.6599V52.4875C36.5143 52.1182 36.4171 51.7552 36.2326 51.4353C36.0481 51.1153 35.7828 50.8494 35.4633 50.6641Z" fill="#004ED6"/>
</g>
</g>
<defs>
<filter id="filter0_b_263_2141" x="-42" y="-42" width="394" height="184" filterUnits="userSpaceOnUse" color-interpolation-filters="sRGB">
<feFlood flood-opacity="0" result="BackgroundImageFix"/>
<feGaussianBlur in="BackgroundImageFix" stdDeviation="21"/>
<feComposite in2="SourceAlpha" operator="in" result="effect1_backgroundBlur_263_2141"/>
<feBlend mode="normal" in="SourceGraphic" in2="effect1_backgroundBlur_263_2141" result="shape"/>
</filter>
<clipPath id="clip0_263_2141">
<rect width="280" height="56" fill="white" transform="translate(15 22)"/>
</clipPath>
</defs>
</svg>
