<svg width="48" height="49" viewBox="0 0 48 49" fill="none" xmlns="http://www.w3.org/2000/svg">
<path d="M40.0058 16.2644H33.7927C33.8618 16.205 33.9326 16.1474 33.9999 16.0844C34.5378 15.5988 34.9713 15.0056 35.2733 14.3419C35.5754 13.6782 35.7394 12.9583 35.7551 12.2273C35.7784 11.4276 35.6405 10.6315 35.3501 9.88781C35.0596 9.14416 34.6227 8.46869 34.0661 7.90287C33.5094 7.33704 32.8449 6.8928 32.1132 6.59741C31.3815 6.30202 30.5981 6.16172 29.8112 6.18513C29.0915 6.20088 28.3828 6.36743 27.7294 6.67435C27.076 6.98127 26.4919 7.42195 26.0138 7.96881C25.3523 8.74796 24.8145 9.62729 24.4198 10.575C24.0252 9.62729 23.4874 8.74796 22.8258 7.96881C22.3477 7.42195 21.7637 6.98127 21.1103 6.67435C20.4569 6.36743 19.7481 6.20088 19.0285 6.18513C18.2415 6.16172 17.4581 6.30202 16.7265 6.59741C15.9948 6.8928 15.3302 7.33704 14.7736 7.90287C14.217 8.46869 13.78 9.14416 13.4896 9.88781C13.1991 10.6315 13.0613 11.4276 13.0845 12.2273C13.1003 12.9583 13.2643 13.6782 13.5663 14.3419C13.8683 15.0056 14.3018 15.5988 14.8397 16.0844C14.907 16.1438 14.9779 16.2014 15.047 16.2644H8.83382C8.08224 16.2644 7.36145 16.5678 6.83001 17.1079C6.29856 17.648 6 18.3805 6 19.1442V24.9038C6 25.6676 6.29856 26.4001 6.83001 26.9401C7.36145 27.4802 8.08224 27.7836 8.83382 27.7836V39.3028C8.83382 40.0666 9.13238 40.7991 9.66383 41.3391C10.1953 41.8792 10.9161 42.1826 11.6676 42.1826H37.172C37.9236 42.1826 38.6444 41.8792 39.1758 41.3391C39.7073 40.7991 40.0058 40.0666 40.0058 39.3028V27.7836C40.7574 27.7836 41.4782 27.4802 42.0096 26.9401C42.5411 26.4001 42.8396 25.6676 42.8396 24.9038V19.1442C42.8396 18.3805 42.5411 17.648 42.0096 17.1079C41.4782 16.5678 40.7574 16.2644 40.0058 16.2644ZM28.1392 9.87667C28.3636 9.62491 28.6367 9.423 28.9415 9.28361C29.2463 9.14423 29.5761 9.07039 29.9103 9.06673H29.9971C30.3889 9.06922 30.7761 9.15113 31.1363 9.30768C31.4965 9.46423 31.8223 9.69225 32.0946 9.97839C32.3669 10.2645 32.5803 10.603 32.7223 10.9741C32.8642 11.3451 32.9319 11.7412 32.9213 12.1391C32.9177 12.4787 32.845 12.814 32.7079 13.1237C32.5707 13.4334 32.372 13.711 32.1243 13.939C30.4435 15.4509 27.6539 15.9836 25.9253 16.1708C26.1378 14.2648 26.7223 11.4948 28.1392 9.87667ZM16.788 9.94147C17.3369 9.38367 18.0804 9.06866 18.8567 9.06493H18.9435C19.2777 9.06859 19.6075 9.14243 19.9123 9.28181C20.2171 9.4212 20.4903 9.62311 20.7146 9.87487C22.2006 11.5812 22.7248 14.4106 22.909 16.16C21.1875 15.98 18.4033 15.4401 16.7242 13.93C16.4765 13.702 16.2778 13.4244 16.1406 13.1147C16.0035 12.805 15.9308 12.4697 15.9272 12.1301C15.9162 11.7256 15.9862 11.323 16.133 10.9467C16.2797 10.5705 16.5002 10.2285 16.7809 9.94147H16.788ZM8.83382 19.1442H23.0029V24.9038H8.83382V19.1442ZM11.6676 27.7836H23.0029V39.3028H11.6676V27.7836ZM37.172 39.3028H25.8367V27.7836H37.172V39.3028ZM40.0058 24.9038H25.8367V19.1442H40.0058V24.9038Z" fill="#FFFEFE"/>
</svg>
