<svg width="49" height="49" viewBox="0 0 49 49" fill="none" xmlns="http://www.w3.org/2000/svg">
<path d="M12.5 11C12.5 10.2044 12.8161 9.44129 13.3787 8.87868C13.9413 8.31607 14.7044 8 15.5 8C16.2956 8 17.0587 8.31607 17.6213 8.87868C18.1839 9.44129 18.5 10.2044 18.5 11C18.5 11.7956 18.1839 12.5587 17.6213 13.1213C17.0587 13.6839 16.2956 14 15.5 14C14.7044 14 13.9413 13.6839 13.3787 13.1213C12.8161 12.5587 12.5 11.7956 12.5 11ZM15.5 5C13.9087 5 12.3826 5.63214 11.2574 6.75736C10.1321 7.88258 9.5 9.4087 9.5 11C9.5 12.5913 10.1321 14.1174 11.2574 15.2426C12.3826 16.3679 13.9087 17 15.5 17C17.0913 17 18.6174 16.3679 19.7426 15.2426C20.8679 14.1174 21.5 12.5913 21.5 11C21.5 9.4087 20.8679 7.88258 19.7426 6.75736C18.6174 5.63214 17.0913 5 15.5 5ZM7.25 20C6.25544 20 5.30161 20.3951 4.59835 21.0984C3.89509 21.8016 3.5 22.7554 3.5 23.75V24.125C3.5 24.5375 3.5 26.8925 5.081 29.165C6.2165 30.797 8.0555 32.2355 10.9295 32.975C11.5089 31.8674 12.4184 30.9673 13.532 30.3995C10.037 30.023 8.3765 28.649 7.544 27.452C6.87399 26.471 6.51061 25.313 6.5 24.125V23.75C6.5 23.5511 6.57902 23.3603 6.71967 23.2197C6.86032 23.079 7.05109 23 7.25 23H16.25C16.25 21.941 16.4495 20.93 16.8125 20H7.25ZM43.919 29.165C42.7835 30.797 40.9445 32.2355 38.0705 32.975C37.491 31.8674 36.5815 30.9674 35.468 30.3995C38.963 30.023 40.6235 28.649 41.456 27.452C42.126 26.471 42.4894 25.313 42.5 24.125V23.75C42.5 23.5511 42.421 23.3603 42.2803 23.2197C42.1397 23.079 41.9489 23 41.75 23H32.75C32.75 21.941 32.5505 20.93 32.1875 20H41.75C42.7446 20 43.6984 20.3951 44.4016 21.0984C45.1049 21.8016 45.5 22.7554 45.5 23.75V24.125C45.5 24.5375 45.5 26.8925 43.919 29.165ZM30.5 11C30.5 10.2044 30.8161 9.44129 31.3787 8.87868C31.9413 8.31607 32.7044 8 33.5 8C34.2956 8 35.0587 8.31607 35.6213 8.87868C36.1839 9.44129 36.5 10.2044 36.5 11C36.5 11.7956 36.1839 12.5587 35.6213 13.1213C35.0587 13.6839 34.2956 14 33.5 14C32.7044 14 31.9413 13.6839 31.3787 13.1213C30.8161 12.5587 30.5 11.7956 30.5 11ZM33.5 5C31.9087 5 30.3826 5.63214 29.2574 6.75736C28.1321 7.88258 27.5 9.4087 27.5 11C27.5 12.5913 28.1321 14.1174 29.2574 15.2426C30.3826 16.3679 31.9087 17 33.5 17C35.0913 17 36.6174 16.3679 37.7426 15.2426C38.8679 14.1174 39.5 12.5913 39.5 11C39.5 9.4087 38.8679 7.88258 37.7426 6.75736C36.6174 5.63214 35.0913 5 33.5 5ZM24.5 20C23.7044 20 22.9413 20.3161 22.3787 20.8787C21.8161 21.4413 21.5 22.2044 21.5 23C21.5 23.7956 21.8161 24.5587 22.3787 25.1213C22.9413 25.6839 23.7044 26 24.5 26C25.2956 26 26.0587 25.6839 26.6213 25.1213C27.1839 24.5587 27.5 23.7956 27.5 23C27.5 22.2044 27.1839 21.4413 26.6213 20.8787C26.0587 20.3161 25.2956 20 24.5 20ZM18.5 23C18.5 21.4087 19.1321 19.8826 20.2574 18.7574C21.3826 17.6321 22.9087 17 24.5 17C26.0913 17 27.6174 17.6321 28.7426 18.7574C29.8679 19.8826 30.5 21.4087 30.5 23C30.5 24.5913 29.8679 26.1174 28.7426 27.2426C27.6174 28.3679 26.0913 29 24.5 29C22.9087 29 21.3826 28.3679 20.2574 27.2426C19.1321 26.1174 18.5 24.5913 18.5 23ZM12.5 35.75C12.5 34.7554 12.8951 33.8016 13.5983 33.0984C14.3016 32.3951 15.2554 32 16.25 32H32.75C33.2425 32 33.7301 32.097 34.1851 32.2855C34.64 32.4739 35.0534 32.7501 35.4016 33.0984C35.7499 33.4466 36.0261 33.86 36.2145 34.3149C36.403 34.7699 36.5 35.2575 36.5 35.75V36.125C36.5 36.5375 36.5 38.8925 34.919 41.165C33.269 43.5365 30.134 45.5 24.5 45.5C18.8675 45.5 15.731 43.5365 14.081 41.165C12.5 38.8925 12.5 36.539 12.5 36.125V35.75ZM16.25 35C16.0511 35 15.8603 35.079 15.7197 35.2197C15.579 35.3603 15.5 35.5511 15.5 35.75V36.125C15.5 36.3725 15.5015 37.955 16.544 39.452C17.519 40.8545 19.634 42.5 24.5 42.5C29.3675 42.5 31.481 40.8545 32.456 39.452C33.126 38.471 33.4894 37.313 33.5 36.125V35.75C33.5 35.5511 33.421 35.3603 33.2803 35.2197C33.1397 35.079 32.9489 35 32.75 35H16.25Z" fill="#EB2A23"/>
</svg>
