<svg width="49" height="49" viewBox="0 0 49 49" fill="none" xmlns="http://www.w3.org/2000/svg">
<path d="M24.5 46C12.64 46 3 36.36 3 24.5C3 12.64 12.64 3 24.5 3C36.36 3 46 12.64 46 24.5C46 36.36 36.36 46 24.5 46ZM24.5 6C14.3 6 6 14.3 6 24.5C6 34.7 14.3 43 24.5 43C34.7 43 43 34.7 43 24.5C43 14.3 34.7 6 24.5 6Z" fill="#EB2A23"/>
<path d="M28.9005 25.9998H18.0605C17.2405 25.9998 16.5605 25.3198 16.5605 24.4998V15.8398C16.5605 15.0198 17.2405 14.3398 18.0605 14.3398H28.9005C32.0005 14.3398 34.7405 17.0598 34.7405 20.1798C34.7405 23.3798 32.1205 25.9998 28.9005 25.9998ZM19.5605 22.9998H28.9005C30.4605 22.9998 31.7405 21.7198 31.7405 20.1598C31.7405 18.8398 30.5005 17.3198 28.9005 17.3198H19.5605V22.9998Z" fill="#EB2A23"/>
<path d="M30.4405 34.66H18.0605C17.2405 34.66 16.5605 33.98 16.5605 33.16V24.5C16.5605 23.68 17.2405 23 18.0605 23H30.4405C34.0005 23 36.9005 25.62 36.9005 28.84C36.9005 32.06 34.0005 34.66 30.4405 34.66ZM19.5605 31.66H30.4405C32.3405 31.66 33.9005 30.38 33.9005 28.82C33.9005 27.26 32.3605 25.98 30.4405 25.98H19.5605V31.66Z" fill="#EB2A23"/>
<path d="M25.6406 39.0002C24.8206 39.0002 24.1406 38.3202 24.1406 37.5002V33.1602C24.1406 32.3402 24.8206 31.6602 25.6406 31.6602C26.4606 31.6602 27.1406 32.3402 27.1406 33.1602V37.5002C27.1406 38.3202 26.4806 39.0002 25.6406 39.0002Z" fill="#EB2A23"/>
<path d="M20.2402 38.9999C19.4202 38.9999 18.7402 38.3199 18.7402 37.4999V33.1599C18.7402 32.3399 19.4202 31.6599 20.2402 31.6599C21.0602 31.6599 21.7402 32.3399 21.7402 33.1599V37.4999C21.7402 38.3199 21.0602 38.9999 20.2402 38.9999Z" fill="#EB2A23"/>
<path d="M25.6406 17.34C24.8206 17.34 24.1406 16.66 24.1406 15.84V11.5C24.1406 10.68 24.8206 10 25.6406 10C26.4606 10 27.1406 10.68 27.1406 11.5V15.84C27.1406 16.66 26.4806 17.34 25.6406 17.34Z" fill="#EB2A23"/>
<path d="M20.2402 17.34C19.4202 17.34 18.7402 16.66 18.7402 15.84V11.5C18.7402 10.68 19.4202 10 20.2402 10C21.0602 10 21.7402 10.68 21.7402 11.5V15.84C21.7402 16.66 21.0602 17.34 20.2402 17.34Z" fill="#EB2A23"/>
<path d="M22.1796 17.3401H14.5996C13.7796 17.3401 13.0996 16.6601 13.0996 15.8401C13.0996 15.0201 13.7796 14.3401 14.5996 14.3401H22.1796C22.9996 14.3401 23.6796 15.0201 23.6796 15.8401C23.6796 16.6601 23.0196 17.3401 22.1796 17.3401Z" fill="#EB2A23"/>
<path d="M22.1796 34.6599H14.5996C13.7796 34.6599 13.0996 33.9799 13.0996 33.1599C13.0996 32.3399 13.7796 31.6599 14.5996 31.6599H22.1796C22.9996 31.6599 23.6796 32.3399 23.6796 33.1599C23.6796 33.9799 23.0196 34.6599 22.1796 34.6599Z" fill="#EB2A23"/>
</svg>
