<svg width="48" height="44" viewBox="0 0 48 44" fill="none" xmlns="http://www.w3.org/2000/svg">
<path d="M23.9996 1.68689L46.2853 11.3452L23.9996 21L1.71387 11.3452L23.9996 1.68689Z" stroke="#EB2A23" stroke-width="3" stroke-linecap="round" stroke-linejoin="round"/>
<path d="M11.8282 15.7509L11.8487 26.256C11.8487 26.256 15.5276 31.1246 23.9996 31.1246C32.4682 31.1246 36.171 26.256 36.171 26.256L36.1676 15.7509M5.81101 33.3463V13.152M5.81101 33.3463C6.89855 33.3463 7.94497 33.7783 8.71398 34.5474C9.48299 35.3164 9.91501 36.3594 9.91501 37.4469C9.91501 38.5344 9.48299 39.5774 8.71398 40.3464C7.94497 41.1154 6.90198 41.5475 5.81444 41.5475C4.7269 41.5475 3.6839 41.1154 2.9149 40.3464C2.14589 39.5774 1.71387 38.5344 1.71387 37.4469C1.71387 36.3594 2.14589 35.3164 2.9149 34.5474C3.6839 33.7783 4.72347 33.3463 5.81101 33.3463Z" stroke="#EB2A23" stroke-width="3" stroke-linecap="round" stroke-linejoin="round"/>
</svg>
