<svg width="28" height="28" viewBox="0 0 28 28" fill="none" xmlns="http://www.w3.org/2000/svg">
<rect x="0.35" y="0.35" width="27.3" height="27.3" rx="13.65" fill="#262629"/>
<rect x="0.35" y="0.35" width="27.3" height="27.3" rx="13.65" stroke="url(#paint0_linear_499_169)" stroke-width="0.7"/>
<g clip-path="url(#clip0_499_169)">
<path fill-rule="evenodd" clip-rule="evenodd" d="M21.1999 9.04665C21.2362 8.82608 21.2128 8.5998 21.132 8.39138C21.0511 8.18296 20.9159 8.00004 20.7403 7.86166C20.5647 7.72328 20.3553 7.63452 20.1337 7.60462C19.9122 7.57472 19.6867 7.60477 19.4807 7.69165L5.23073 13.6916C4.2374 14.11 4.18657 15.5466 5.23073 15.98C6.26467 16.4112 7.31367 16.8053 8.37573 17.1616C9.34907 17.4833 10.4107 17.7808 11.2616 17.865C11.4941 18.1433 11.7866 18.4116 12.0849 18.6566C12.5407 19.0316 13.0891 19.4175 13.6557 19.7875C14.7907 20.5291 16.0499 21.2383 16.8982 21.7C17.9124 22.25 19.1266 21.6166 19.3082 20.5108L21.1999 9.04665ZM6.82823 14.8275L19.4316 9.52082L17.6666 20.2208C16.8341 19.7683 15.6349 19.0908 14.5666 18.3925C14.0742 18.0764 13.5988 17.7345 13.1424 17.3683C13.0204 17.2687 12.902 17.1647 12.7874 17.0566L16.0882 13.7566C16.2446 13.6004 16.3325 13.3884 16.3326 13.1674C16.3326 12.9463 16.2449 12.7343 16.0886 12.5779C15.9324 12.4215 15.7204 12.3336 15.4994 12.3336C15.2783 12.3335 15.0663 12.4212 14.9099 12.5775L11.2957 16.1916C10.6841 16.1133 9.8324 15.8866 8.8974 15.5783C8.20131 15.3464 7.51162 15.0958 6.82907 14.8266L6.82823 14.8275Z" fill="white"/>
</g>
<defs>
<linearGradient id="paint0_linear_499_169" x1="14" y1="0" x2="14" y2="26.9818" gradientUnits="userSpaceOnUse">
<stop stop-color="#676A70" stop-opacity="0.2"/>
<stop offset="0.557292" stop-color="#BCBDC0" stop-opacity="0.05"/>
<stop offset="1" stop-color="white" stop-opacity="0.05"/>
</linearGradient>
<clipPath id="clip0_499_169">
<rect width="20" height="20" fill="white" transform="translate(3 4)"/>
</clipPath>
</defs>
</svg>
