<svg width="540" height="460" viewBox="0 0 540 460" fill="none" xmlns="http://www.w3.org/2000/svg">
<rect x="80.3115" y="40.3115" width="379.262" height="379.262" rx="189.631" stroke="#737373" stroke-width="0.622951"/>
<rect x="123.726" y="83.727" width="292.432" height="292.432" rx="146.216" stroke="#404040" stroke-width="0.622951"/>
<rect x="167.144" y="127.142" width="205.601" height="205.601" rx="102.8" stroke="#404040" stroke-width="0.622951"/>
<rect x="210.558" y="170.558" width="118.769" height="118.769" rx="59.3847" stroke="#404040" stroke-width="0.622951"/>
<rect x="253.974" y="213.973" width="31.9386" height="31.9386" rx="15.9693" stroke="#404040" stroke-width="0.622951"/>
<path d="M80 229.942H459.885" stroke="#737373" stroke-width="0.622951"/>
<path d="M269.943 40L269.943 419.885" stroke="#737373" stroke-width="0.622951"/>
<path d="M135.633 95.6323L404.252 364.252" stroke="#737373" stroke-width="0.622951"/>
<path d="M404.252 95.6323L135.633 364.252" stroke="#737373" stroke-width="0.622951"/>
<path d="M269.998 79.3569C293.771 79.3569 317.207 84.9833 338.389 95.776C359.571 106.569 377.897 122.221 391.871 141.454L269.998 230V79.3569Z" fill="#EB2A23"/>
<path d="M328.192 187.721C334.416 196.287 338.671 206.121 340.655 216.522C342.639 226.922 342.303 237.632 339.67 247.888L270.001 230L328.192 187.721Z" fill="#F5635D"/>
<path d="M373.847 256.665C367.354 281.952 351.857 304.001 330.263 318.676C308.67 333.35 282.464 339.641 256.562 336.369L270.001 230L373.847 256.665Z" fill="#FF918E"/>
<path d="M249.579 391.572C220.643 387.914 193.22 376.553 170.176 358.675C147.132 340.798 129.311 317.059 118.577 289.941L270.002 230L249.579 391.572Z" fill="#FFB5B3"/>
<path d="M134.975 283.437C125.974 260.694 122.864 236.045 125.933 211.779L269.999 229.999L134.975 283.437Z" fill="#FFD8D7"/>
<path d="M163.638 216.522C166.92 190.621 179.54 166.808 199.13 149.55C218.72 132.292 243.935 122.776 270.042 122.786L270.001 230L163.638 216.522Z" fill="#FFEEED"/>
<path d="M306.176 147H304.848V138.088L303.136 139.896L302.336 139.08L305.008 136.328H306.176V147ZM312.318 147.192C309.39 147.192 308.238 144.264 308.238 141.672C308.238 139.064 309.39 136.168 312.318 136.168C315.23 136.168 316.398 139.064 316.398 141.672C316.398 144.264 315.23 147.192 312.318 147.192ZM312.318 146.008C314.35 146.008 315.038 143.8 315.038 141.672C315.038 139.544 314.35 137.352 312.318 137.352C310.286 137.352 309.598 139.544 309.598 141.672C309.598 143.8 310.286 146.008 312.318 146.008ZM318.559 147.16C318.079 147.16 317.679 146.76 317.679 146.28C317.679 145.8 318.079 145.4 318.559 145.4C319.039 145.4 319.439 145.8 319.439 146.28C319.439 146.76 319.039 147.16 318.559 147.16ZM325.222 147.192C323.414 147.192 322.262 146.536 321.462 145.48L322.278 144.6C322.982 145.496 323.91 146.008 325.222 146.008C326.678 146.008 327.686 145.016 327.686 143.72C327.686 142.312 326.678 141.416 325.238 141.416C324.294 141.416 323.494 141.72 322.774 142.424L321.798 142.088V136.328H328.326V137.512H323.126V141.224C323.638 140.712 324.55 140.264 325.622 140.264C327.398 140.264 329.014 141.48 329.014 143.672C329.014 145.848 327.366 147.192 325.222 147.192ZM332.9 141.432C331.38 141.432 330.34 140.312 330.34 138.824C330.34 137.32 331.38 136.168 332.9 136.168C334.436 136.168 335.492 137.32 335.492 138.824C335.492 140.312 334.436 141.432 332.9 141.432ZM332.756 147H331.892L338.708 136.328H339.588L332.756 147ZM338.468 147.192C336.948 147.192 335.908 146.072 335.908 144.584C335.908 143.08 336.948 141.928 338.468 141.928C339.988 141.928 341.044 143.08 341.044 144.584C341.044 146.072 339.988 147.192 338.468 147.192ZM332.9 140.632C333.86 140.632 334.532 139.832 334.532 138.824C334.532 137.768 333.86 136.984 332.9 136.984C331.956 136.984 331.3 137.768 331.3 138.824C331.3 139.832 331.956 140.632 332.9 140.632ZM338.468 146.392C339.428 146.392 340.1 145.592 340.1 144.584C340.1 143.528 339.428 142.744 338.468 142.744C337.508 142.744 336.852 143.528 336.852 144.584C336.852 145.592 337.508 146.392 338.468 146.392Z" fill="#141A1F"/>
<path d="M306.176 147V147.15H306.326V147H306.176ZM304.848 147H304.698V147.15H304.848V147ZM304.848 138.088H304.998V137.711L304.739 137.985L304.848 138.088ZM303.136 139.896L303.029 140.001L303.138 140.112L303.245 139.999L303.136 139.896ZM302.336 139.08L302.228 138.976L302.126 139.081L302.229 139.185L302.336 139.08ZM305.008 136.328V136.178H304.945L304.9 136.224L305.008 136.328ZM306.176 136.328H306.326V136.178H306.176V136.328ZM306.176 146.85H304.848V147.15H306.176V146.85ZM304.998 147V138.088H304.698V147H304.998ZM304.739 137.985L303.027 139.793L303.245 139.999L304.957 138.191L304.739 137.985ZM303.243 139.791L302.443 138.975L302.229 139.185L303.029 140.001L303.243 139.791ZM302.444 139.184L305.116 136.432L304.9 136.224L302.228 138.976L302.444 139.184ZM305.008 136.478H306.176V136.178H305.008V136.478ZM306.026 136.328V147H306.326V136.328H306.026ZM312.318 147.042C310.914 147.042 309.939 146.344 309.307 145.325C308.672 144.299 308.388 142.949 308.388 141.672H308.088C308.088 142.987 308.379 144.397 309.052 145.483C309.729 146.576 310.794 147.342 312.318 147.342V147.042ZM308.388 141.672C308.388 140.387 308.672 139.041 309.307 138.021C309.938 137.008 310.913 136.318 312.318 136.318V136.018C310.795 136.018 309.73 136.776 309.053 137.863C308.379 138.943 308.088 140.349 308.088 141.672H308.388ZM312.318 136.318C313.714 136.318 314.69 137.008 315.323 138.021C315.96 139.041 316.248 140.387 316.248 141.672H316.548C316.548 140.349 316.252 138.943 315.577 137.863C314.898 136.776 313.833 136.018 312.318 136.018V136.318ZM316.248 141.672C316.248 142.949 315.96 144.299 315.322 145.325C314.689 146.344 313.714 147.042 312.318 147.042V147.342C313.834 147.342 314.899 146.576 315.577 145.483C316.252 144.397 316.548 142.987 316.548 141.672H316.248ZM312.318 146.158C313.402 146.158 314.127 145.563 314.573 144.707C315.014 143.859 315.188 142.748 315.188 141.672H314.888C314.888 142.724 314.717 143.781 314.307 144.569C313.9 145.349 313.265 145.858 312.318 145.858V146.158ZM315.188 141.672C315.188 140.596 315.014 139.488 314.573 138.644C314.127 137.793 313.402 137.202 312.318 137.202V137.502C313.266 137.502 313.901 138.007 314.307 138.784C314.717 139.568 314.888 140.62 314.888 141.672H315.188ZM312.318 137.202C311.234 137.202 310.509 137.793 310.063 138.644C309.621 139.488 309.448 140.596 309.448 141.672H309.748C309.748 140.62 309.918 139.568 310.329 138.784C310.735 138.007 311.37 137.502 312.318 137.502V137.202ZM309.448 141.672C309.448 142.748 309.621 143.859 310.063 144.707C310.508 145.563 311.233 146.158 312.318 146.158V145.858C311.37 145.858 310.735 145.349 310.329 144.569C309.918 143.781 309.748 142.724 309.748 141.672H309.448ZM318.559 147.01C318.162 147.01 317.829 146.677 317.829 146.28H317.529C317.529 146.843 317.996 147.31 318.559 147.31V147.01ZM317.829 146.28C317.829 145.883 318.162 145.55 318.559 145.55V145.25C317.996 145.25 317.529 145.717 317.529 146.28H317.829ZM318.559 145.55C318.956 145.55 319.289 145.883 319.289 146.28H319.589C319.589 145.717 319.122 145.25 318.559 145.25V145.55ZM319.289 146.28C319.289 146.677 318.956 147.01 318.559 147.01V147.31C319.122 147.31 319.589 146.843 319.589 146.28H319.289ZM321.462 145.48L321.352 145.378L321.267 145.47L321.343 145.571L321.462 145.48ZM322.278 144.6L322.396 144.507L322.288 144.369L322.168 144.498L322.278 144.6ZM322.774 142.424L322.725 142.566L322.813 142.596L322.879 142.531L322.774 142.424ZM321.798 142.088H321.648V142.195L321.749 142.23L321.798 142.088ZM321.798 136.328V136.178H321.648V136.328H321.798ZM328.326 136.328H328.476V136.178H328.326V136.328ZM328.326 137.512V137.662H328.476V137.512H328.326ZM323.126 137.512V137.362H322.976V137.512H323.126ZM323.126 141.224H322.976V141.586L323.232 141.33L323.126 141.224ZM325.222 147.042C323.458 147.042 322.352 146.406 321.582 145.389L321.343 145.571C322.173 146.666 323.37 147.342 325.222 147.342V147.042ZM321.572 145.582L322.388 144.702L322.168 144.498L321.352 145.378L321.572 145.582ZM322.16 144.693C322.892 145.623 323.862 146.158 325.222 146.158V145.858C323.958 145.858 323.073 145.369 322.396 144.507L322.16 144.693ZM325.222 146.158C326.753 146.158 327.836 145.107 327.836 143.72H327.536C327.536 144.925 326.604 145.858 325.222 145.858V146.158ZM327.836 143.72C327.836 142.978 327.57 142.361 327.104 141.93C326.64 141.5 325.989 141.266 325.238 141.266V141.566C325.927 141.566 326.501 141.78 326.9 142.15C327.299 142.519 327.536 143.054 327.536 143.72H327.836ZM325.238 141.266C324.256 141.266 323.418 141.585 322.669 142.317L322.879 142.531C323.57 141.855 324.332 141.566 325.238 141.566V141.266ZM322.823 142.282L321.847 141.946L321.749 142.23L322.725 142.566L322.823 142.282ZM321.948 142.088V136.328H321.648V142.088H321.948ZM321.798 136.478H328.326V136.178H321.798V136.478ZM328.176 136.328V137.512H328.476V136.328H328.176ZM328.326 137.362H323.126V137.662H328.326V137.362ZM322.976 137.512V141.224H323.276V137.512H322.976ZM323.232 141.33C323.716 140.846 324.59 140.414 325.622 140.414V140.114C324.511 140.114 323.56 140.578 323.02 141.118L323.232 141.33ZM325.622 140.414C326.477 140.414 327.287 140.706 327.882 141.256C328.476 141.804 328.864 142.615 328.864 143.672H329.164C329.164 142.537 328.745 141.644 328.086 141.036C327.429 140.43 326.544 140.114 325.622 140.114V140.414ZM328.864 143.672C328.864 144.72 328.469 145.558 327.822 146.136C327.174 146.716 326.263 147.042 325.222 147.042V147.342C326.325 147.342 327.311 146.996 328.022 146.36C328.736 145.722 329.164 144.8 329.164 143.672H328.864ZM332.756 147V147.15H332.838L332.882 147.081L332.756 147ZM331.892 147L331.765 146.919L331.618 147.15H331.892V147ZM338.708 136.328V136.178H338.626L338.581 136.247L338.708 136.328ZM339.588 136.328L339.714 136.409L339.862 136.178H339.588V136.328ZM332.9 141.282C331.467 141.282 330.49 140.234 330.49 138.824H330.19C330.19 140.39 331.292 141.582 332.9 141.582V141.282ZM330.49 138.824C330.49 137.395 331.47 136.318 332.9 136.318V136.018C331.289 136.018 330.19 137.245 330.19 138.824H330.49ZM332.9 136.318C334.347 136.318 335.342 137.397 335.342 138.824H335.642C335.642 137.243 334.525 136.018 332.9 136.018V136.318ZM335.342 138.824C335.342 140.232 334.35 141.282 332.9 141.282V141.582C334.522 141.582 335.642 140.392 335.642 138.824H335.342ZM332.756 146.85H331.892V147.15H332.756V146.85ZM332.018 147.081L338.834 136.409L338.581 136.247L331.765 146.919L332.018 147.081ZM338.708 136.478H339.588V136.178H338.708V136.478ZM339.461 136.247L332.629 146.919L332.882 147.081L339.714 136.409L339.461 136.247ZM338.468 147.042C337.035 147.042 336.058 145.994 336.058 144.584H335.758C335.758 146.15 336.86 147.342 338.468 147.342V147.042ZM336.058 144.584C336.058 143.155 337.038 142.078 338.468 142.078V141.778C336.857 141.778 335.758 143.005 335.758 144.584H336.058ZM338.468 142.078C339.898 142.078 340.894 143.156 340.894 144.584H341.194C341.194 143.004 340.077 141.778 338.468 141.778V142.078ZM340.894 144.584C340.894 145.993 339.901 147.042 338.468 147.042V147.342C340.074 147.342 341.194 146.151 341.194 144.584H340.894ZM332.9 140.782C333.96 140.782 334.682 139.897 334.682 138.824H334.382C334.382 139.767 333.76 140.482 332.9 140.482V140.782ZM334.682 138.824C334.682 137.704 333.96 136.834 332.9 136.834V137.134C333.759 137.134 334.382 137.832 334.382 138.824H334.682ZM332.9 136.834C331.852 136.834 331.15 137.707 331.15 138.824H331.45C331.45 137.829 332.059 137.134 332.9 137.134V136.834ZM331.15 138.824C331.15 139.894 331.853 140.782 332.9 140.782V140.482C332.058 140.482 331.45 139.77 331.45 138.824H331.15ZM338.468 146.542C339.528 146.542 340.25 145.657 340.25 144.584H339.95C339.95 145.527 339.328 146.242 338.468 146.242V146.542ZM340.25 144.584C340.25 143.464 339.528 142.594 338.468 142.594V142.894C339.327 142.894 339.95 143.592 339.95 144.584H340.25ZM338.468 142.594C337.405 142.594 336.702 143.466 336.702 144.584H337.002C337.002 143.59 337.61 142.894 338.468 142.894V142.594ZM336.702 144.584C336.702 145.655 337.406 146.542 338.468 146.542V146.242C337.609 146.242 337.002 145.529 337.002 144.584H336.702Z" fill="#141A1F"/>
<path d="M306.176 227H304.848V218.072L303.136 219.896L302.336 219.08L305.008 216.328H306.176V227ZM314.334 227H313.006V224.296H307.934V223.192L312.51 216.328H314.334V223.128H315.838V224.296H314.334V227ZM313.006 223.128V217.56L309.262 223.128H313.006ZM319.416 221.432C317.896 221.432 316.84 220.296 316.84 218.824C316.84 217.304 317.896 216.168 319.416 216.168C320.952 216.168 321.992 217.304 321.992 218.824C321.992 220.296 320.952 221.432 319.416 221.432ZM319.272 227H318.392L325.208 216.328H326.104L319.272 227ZM324.984 227.192C323.464 227.192 322.408 226.056 322.408 224.568C322.408 223.08 323.464 221.928 324.984 221.928C326.504 221.928 327.544 223.08 327.544 224.568C327.544 226.056 326.504 227.192 324.984 227.192ZM319.416 220.616C320.376 220.616 321.032 219.832 321.032 218.824C321.032 217.768 320.376 216.984 319.416 216.984C318.472 216.984 317.8 217.768 317.8 218.824C317.8 219.832 318.472 220.616 319.416 220.616ZM324.984 226.376C325.944 226.376 326.6 225.592 326.6 224.568C326.6 223.528 325.944 222.744 324.984 222.744C324.008 222.744 323.352 223.528 323.352 224.568C323.352 225.592 324.008 226.376 324.984 226.376Z" fill="#141A1F"/>
<path d="M306.176 227V227.15H306.326V227H306.176ZM304.848 227H304.698V227.15H304.848V227ZM304.848 218.072H304.998V217.693L304.739 217.969L304.848 218.072ZM303.136 219.896L303.029 220.001L303.138 220.113L303.245 219.999L303.136 219.896ZM302.336 219.08L302.228 218.976L302.126 219.081L302.229 219.185L302.336 219.08ZM305.008 216.328V216.178H304.945L304.9 216.224L305.008 216.328ZM306.176 216.328H306.326V216.178H306.176V216.328ZM306.176 226.85H304.848V227.15H306.176V226.85ZM304.998 227V218.072H304.698V227H304.998ZM304.739 217.969L303.027 219.793L303.245 219.999L304.957 218.175L304.739 217.969ZM303.243 219.791L302.443 218.975L302.229 219.185L303.029 220.001L303.243 219.791ZM302.444 219.184L305.116 216.432L304.9 216.224L302.228 218.976L302.444 219.184ZM305.008 216.478H306.176V216.178H305.008V216.478ZM306.026 216.328V227H306.326V216.328H306.026ZM314.334 227V227.15H314.484V227H314.334ZM313.006 227H312.856V227.15H313.006V227ZM313.006 224.296H313.156V224.146H313.006V224.296ZM307.934 224.296H307.784V224.446H307.934V224.296ZM307.934 223.192L307.809 223.109L307.784 223.147V223.192H307.934ZM312.51 216.328V216.178H312.43L312.385 216.245L312.51 216.328ZM314.334 216.328H314.484V216.178H314.334V216.328ZM314.334 223.128H314.184V223.278H314.334V223.128ZM315.838 223.128H315.988V222.978H315.838V223.128ZM315.838 224.296V224.446H315.988V224.296H315.838ZM314.334 224.296V224.146H314.184V224.296H314.334ZM313.006 223.128V223.278H313.156V223.128H313.006ZM313.006 217.56H313.156V217.068L312.881 217.476L313.006 217.56ZM309.262 223.128L309.137 223.044L308.98 223.278H309.262V223.128ZM314.334 226.85H313.006V227.15H314.334V226.85ZM313.156 227V224.296H312.856V227H313.156ZM313.006 224.146H307.934V224.446H313.006V224.146ZM308.084 224.296V223.192H307.784V224.296H308.084ZM308.059 223.275L312.635 216.411L312.385 216.245L307.809 223.109L308.059 223.275ZM312.51 216.478H314.334V216.178H312.51V216.478ZM314.184 216.328V223.128H314.484V216.328H314.184ZM314.334 223.278H315.838V222.978H314.334V223.278ZM315.688 223.128V224.296H315.988V223.128H315.688ZM315.838 224.146H314.334V224.446H315.838V224.146ZM314.184 224.296V227H314.484V224.296H314.184ZM313.156 223.128V217.56H312.856V223.128H313.156ZM312.881 217.476L309.137 223.044L309.386 223.212L313.13 217.644L312.881 217.476ZM309.262 223.278H313.006V222.978H309.262V223.278ZM319.272 227V227.15H319.354L319.398 227.081L319.272 227ZM318.392 227L318.265 226.919L318.118 227.15H318.392V227ZM325.208 216.328V216.178H325.126L325.081 216.247L325.208 216.328ZM326.104 216.328L326.23 216.409L326.378 216.178H326.104V216.328ZM319.416 221.282C317.983 221.282 316.99 220.217 316.99 218.824H316.69C316.69 220.375 317.809 221.582 319.416 221.582V221.282ZM316.99 218.824C316.99 217.381 317.985 216.318 319.416 216.318V216.018C317.807 216.018 316.69 217.227 316.69 218.824H316.99ZM319.416 216.318C320.862 216.318 321.842 217.38 321.842 218.824H322.142C322.142 217.228 321.041 216.018 319.416 216.018V216.318ZM321.842 218.824C321.842 220.218 320.864 221.282 319.416 221.282V221.582C321.039 221.582 322.142 220.374 322.142 218.824H321.842ZM319.272 226.85H318.392V227.15H319.272V226.85ZM318.518 227.081L325.334 216.409L325.081 216.247L318.265 226.919L318.518 227.081ZM325.208 216.478H326.104V216.178H325.208V216.478ZM325.977 216.247L319.145 226.919L319.398 227.081L326.23 216.409L325.977 216.247ZM324.984 227.042C323.551 227.042 322.558 225.978 322.558 224.568H322.258C322.258 226.134 323.376 227.342 324.984 227.342V227.042ZM322.558 224.568C322.558 223.157 323.553 222.078 324.984 222.078V221.778C323.375 221.778 322.258 223.003 322.258 224.568H322.558ZM324.984 222.078C326.414 222.078 327.394 223.155 327.394 224.568H327.694C327.694 223.005 326.594 221.778 324.984 221.778V222.078ZM327.394 224.568C327.394 225.979 326.415 227.042 324.984 227.042V227.342C326.593 227.342 327.694 226.133 327.694 224.568H327.394ZM319.416 220.766C320.476 220.766 321.182 219.897 321.182 218.824H320.882C320.882 219.767 320.276 220.466 319.416 220.466V220.766ZM321.182 218.824C321.182 217.706 320.478 216.834 319.416 216.834V217.134C320.273 217.134 320.882 217.83 320.882 218.824H321.182ZM319.416 216.834C318.37 216.834 317.65 217.705 317.65 218.824H317.95C317.95 217.831 318.573 217.134 319.416 217.134V216.834ZM317.65 218.824C317.65 219.898 318.373 220.766 319.416 220.766V220.466C318.571 220.466 317.95 219.766 317.95 218.824H317.65ZM324.984 226.526C326.045 226.526 326.75 225.656 326.75 224.568H326.45C326.45 225.528 325.843 226.226 324.984 226.226V226.526ZM326.75 224.568C326.75 223.465 326.045 222.594 324.984 222.594V222.894C325.842 222.894 326.45 223.591 326.45 224.568H326.75ZM324.984 222.594C323.907 222.594 323.202 223.464 323.202 224.568H323.502C323.502 223.592 324.108 222.894 324.984 222.894V222.594ZM323.202 224.568C323.202 225.657 323.908 226.526 324.984 226.526V226.226C324.108 226.226 323.502 225.527 323.502 224.568H323.202Z" fill="#141A1F"/>
<path d="M302.192 291H294.864V289.944C298.704 286.92 300.784 285.144 300.784 283.304C300.784 281.944 299.664 281.352 298.56 281.352C297.28 281.352 296.288 281.896 295.664 282.696L294.848 281.848C295.664 280.776 297.056 280.168 298.56 280.168C300.336 280.168 302.144 281.176 302.144 283.304C302.144 285.48 299.936 287.464 296.96 289.816H302.192V291ZM306.814 291H305.342L309.646 281.512H303.902V280.328H311.182V281.24L306.814 291ZM311.934 291.16C311.454 291.16 311.054 290.76 311.054 290.28C311.054 289.8 311.454 289.4 311.934 289.4C312.414 289.4 312.814 289.8 312.814 290.28C312.814 290.76 312.414 291.16 311.934 291.16ZM318.597 291.192C316.789 291.192 315.637 290.536 314.837 289.48L315.653 288.6C316.357 289.496 317.285 290.008 318.597 290.008C320.053 290.008 321.061 289.016 321.061 287.72C321.061 286.312 320.053 285.416 318.613 285.416C317.669 285.416 316.869 285.72 316.149 286.424L315.173 286.088V280.328H321.701V281.512H316.501V285.224C317.013 284.712 317.925 284.264 318.997 284.264C320.773 284.264 322.389 285.48 322.389 287.672C322.389 289.848 320.741 291.192 318.597 291.192ZM326.275 285.432C324.755 285.432 323.715 284.312 323.715 282.824C323.715 281.32 324.755 280.168 326.275 280.168C327.811 280.168 328.867 281.32 328.867 282.824C328.867 284.312 327.811 285.432 326.275 285.432ZM326.131 291H325.267L332.083 280.328H332.963L326.131 291ZM331.843 291.192C330.323 291.192 329.283 290.072 329.283 288.584C329.283 287.08 330.323 285.928 331.843 285.928C333.363 285.928 334.419 287.08 334.419 288.584C334.419 290.072 333.363 291.192 331.843 291.192ZM326.275 284.632C327.235 284.632 327.907 283.832 327.907 282.824C327.907 281.768 327.235 280.984 326.275 280.984C325.331 280.984 324.675 281.768 324.675 282.824C324.675 283.832 325.331 284.632 326.275 284.632ZM331.843 290.392C332.803 290.392 333.475 289.592 333.475 288.584C333.475 287.528 332.803 286.744 331.843 286.744C330.883 286.744 330.227 287.528 330.227 288.584C330.227 289.592 330.883 290.392 331.843 290.392Z" fill="#141A1F"/>
<path d="M302.192 291V291.15H302.342V291H302.192ZM294.864 291H294.714V291.15H294.864V291ZM294.864 289.944L294.771 289.826L294.714 289.871V289.944H294.864ZM295.664 282.696L295.556 282.8L295.676 282.925L295.782 282.788L295.664 282.696ZM294.848 281.848L294.729 281.757L294.651 281.859L294.74 281.952L294.848 281.848ZM296.96 289.816L296.867 289.698L296.528 289.966H296.96V289.816ZM302.192 289.816H302.342V289.666H302.192V289.816ZM302.192 290.85H294.864V291.15H302.192V290.85ZM295.014 291V289.944H294.714V291H295.014ZM294.957 290.062C296.875 288.551 298.364 287.345 299.373 286.283C300.38 285.224 300.934 284.284 300.934 283.304H300.634C300.634 284.164 300.148 285.032 299.155 286.077C298.164 287.119 296.693 288.313 294.771 289.826L294.957 290.062ZM300.934 283.304C300.934 282.577 300.632 282.045 300.177 281.699C299.727 281.356 299.136 281.202 298.56 281.202V281.502C299.088 281.502 299.609 281.644 299.995 281.937C300.376 282.227 300.634 282.671 300.634 283.304H300.934ZM298.56 281.202C297.234 281.202 296.198 281.767 295.546 282.604L295.782 282.788C296.378 282.025 297.326 281.502 298.56 281.502V281.202ZM295.772 282.592L294.956 281.744L294.74 281.952L295.556 282.8L295.772 282.592ZM294.967 281.939C295.75 280.911 297.094 280.318 298.56 280.318V280.018C297.018 280.018 295.578 280.641 294.729 281.757L294.967 281.939ZM298.56 280.318C299.422 280.318 300.284 280.563 300.927 281.057C301.565 281.547 301.994 282.288 301.994 283.304H302.294C302.294 282.192 301.819 281.365 301.109 280.819C300.404 280.277 299.474 280.018 298.56 280.018V280.318ZM301.994 283.304C301.994 284.339 301.469 285.345 300.555 286.396C299.641 287.446 298.355 288.522 296.867 289.698L297.053 289.934C298.541 288.758 299.847 287.666 300.781 286.592C301.715 285.519 302.294 284.445 302.294 283.304H301.994ZM296.96 289.966H302.192V289.666H296.96V289.966ZM302.042 289.816V291H302.342V289.816H302.042ZM306.814 291V291.15H306.911L306.951 291.061L306.814 291ZM305.342 291L305.206 290.938L305.109 291.15H305.342V291ZM309.646 281.512L309.783 281.574L309.879 281.362H309.646V281.512ZM303.902 281.512H303.752V281.662H303.902V281.512ZM303.902 280.328V280.178H303.752V280.328H303.902ZM311.182 280.328H311.332V280.178H311.182V280.328ZM311.182 281.24L311.319 281.301L311.332 281.272V281.24H311.182ZM306.814 290.85H305.342V291.15H306.814V290.85ZM305.479 291.062L309.783 281.574L309.51 281.45L305.206 290.938L305.479 291.062ZM309.646 281.362H303.902V281.662H309.646V281.362ZM304.052 281.512V280.328H303.752V281.512H304.052ZM303.902 280.478H311.182V280.178H303.902V280.478ZM311.032 280.328V281.24H311.332V280.328H311.032ZM311.045 281.179L306.677 290.939L306.951 291.061L311.319 281.301L311.045 281.179ZM311.934 291.01C311.537 291.01 311.204 290.677 311.204 290.28H310.904C310.904 290.843 311.371 291.31 311.934 291.31V291.01ZM311.204 290.28C311.204 289.883 311.537 289.55 311.934 289.55V289.25C311.371 289.25 310.904 289.717 310.904 290.28H311.204ZM311.934 289.55C312.331 289.55 312.664 289.883 312.664 290.28H312.964C312.964 289.717 312.497 289.25 311.934 289.25V289.55ZM312.664 290.28C312.664 290.677 312.331 291.01 311.934 291.01V291.31C312.497 291.31 312.964 290.843 312.964 290.28H312.664ZM314.837 289.48L314.727 289.378L314.642 289.47L314.718 289.571L314.837 289.48ZM315.653 288.6L315.771 288.507L315.663 288.369L315.543 288.498L315.653 288.6ZM316.149 286.424L316.1 286.566L316.188 286.596L316.254 286.531L316.149 286.424ZM315.173 286.088H315.023V286.195L315.124 286.23L315.173 286.088ZM315.173 280.328V280.178H315.023V280.328H315.173ZM321.701 280.328H321.851V280.178H321.701V280.328ZM321.701 281.512V281.662H321.851V281.512H321.701ZM316.501 281.512V281.362H316.351V281.512H316.501ZM316.501 285.224H316.351V285.586L316.607 285.33L316.501 285.224ZM318.597 291.042C316.833 291.042 315.727 290.406 314.957 289.389L314.718 289.571C315.548 290.666 316.745 291.342 318.597 291.342V291.042ZM314.947 289.582L315.763 288.702L315.543 288.498L314.727 289.378L314.947 289.582ZM315.535 288.693C316.267 289.623 317.237 290.158 318.597 290.158V289.858C317.333 289.858 316.448 289.369 315.771 288.507L315.535 288.693ZM318.597 290.158C320.128 290.158 321.211 289.107 321.211 287.72H320.911C320.911 288.925 319.979 289.858 318.597 289.858V290.158ZM321.211 287.72C321.211 286.978 320.945 286.361 320.479 285.93C320.015 285.5 319.364 285.266 318.613 285.266V285.566C319.302 285.566 319.876 285.78 320.275 286.15C320.674 286.519 320.911 287.054 320.911 287.72H321.211ZM318.613 285.266C317.631 285.266 316.793 285.585 316.044 286.317L316.254 286.531C316.945 285.855 317.707 285.566 318.613 285.566V285.266ZM316.198 286.282L315.222 285.946L315.124 286.23L316.1 286.566L316.198 286.282ZM315.323 286.088V280.328H315.023V286.088H315.323ZM315.173 280.478H321.701V280.178H315.173V280.478ZM321.551 280.328V281.512H321.851V280.328H321.551ZM321.701 281.362H316.501V281.662H321.701V281.362ZM316.351 281.512V285.224H316.651V281.512H316.351ZM316.607 285.33C317.091 284.846 317.965 284.414 318.997 284.414V284.114C317.886 284.114 316.935 284.578 316.395 285.118L316.607 285.33ZM318.997 284.414C319.852 284.414 320.662 284.706 321.257 285.256C321.851 285.804 322.239 286.615 322.239 287.672H322.539C322.539 286.537 322.12 285.644 321.461 285.036C320.804 284.43 319.919 284.114 318.997 284.114V284.414ZM322.239 287.672C322.239 288.72 321.844 289.558 321.197 290.136C320.549 290.716 319.638 291.042 318.597 291.042V291.342C319.7 291.342 320.686 290.996 321.397 290.36C322.111 289.722 322.539 288.8 322.539 287.672H322.239ZM326.131 291V291.15H326.213L326.257 291.081L326.131 291ZM325.267 291L325.14 290.919L324.993 291.15H325.267V291ZM332.083 280.328V280.178H332.001L331.956 280.247L332.083 280.328ZM332.963 280.328L333.089 280.409L333.237 280.178H332.963V280.328ZM326.275 285.282C324.842 285.282 323.865 284.234 323.865 282.824H323.565C323.565 284.39 324.667 285.582 326.275 285.582V285.282ZM323.865 282.824C323.865 281.395 324.845 280.318 326.275 280.318V280.018C324.664 280.018 323.565 281.245 323.565 282.824H323.865ZM326.275 280.318C327.722 280.318 328.717 281.397 328.717 282.824H329.017C329.017 281.243 327.9 280.018 326.275 280.018V280.318ZM328.717 282.824C328.717 284.232 327.725 285.282 326.275 285.282V285.582C327.897 285.582 329.017 284.392 329.017 282.824H328.717ZM326.131 290.85H325.267V291.15H326.131V290.85ZM325.393 291.081L332.209 280.409L331.956 280.247L325.14 290.919L325.393 291.081ZM332.083 280.478H332.963V280.178H332.083V280.478ZM332.836 280.247L326.004 290.919L326.257 291.081L333.089 280.409L332.836 280.247ZM331.843 291.042C330.41 291.042 329.433 289.994 329.433 288.584H329.133C329.133 290.15 330.235 291.342 331.843 291.342V291.042ZM329.433 288.584C329.433 287.155 330.413 286.078 331.843 286.078V285.778C330.232 285.778 329.133 287.005 329.133 288.584H329.433ZM331.843 286.078C333.273 286.078 334.269 287.156 334.269 288.584H334.569C334.569 287.004 333.452 285.778 331.843 285.778V286.078ZM334.269 288.584C334.269 289.993 333.276 291.042 331.843 291.042V291.342C333.449 291.342 334.569 290.151 334.569 288.584H334.269ZM326.275 284.782C327.335 284.782 328.057 283.897 328.057 282.824H327.757C327.757 283.767 327.135 284.482 326.275 284.482V284.782ZM328.057 282.824C328.057 281.704 327.335 280.834 326.275 280.834V281.134C327.134 281.134 327.757 281.832 327.757 282.824H328.057ZM326.275 280.834C325.227 280.834 324.525 281.707 324.525 282.824H324.825C324.825 281.829 325.434 281.134 326.275 281.134V280.834ZM324.525 282.824C324.525 283.894 325.228 284.782 326.275 284.782V284.482C325.433 284.482 324.825 283.77 324.825 282.824H324.525ZM331.843 290.542C332.903 290.542 333.625 289.657 333.625 288.584H333.325C333.325 289.527 332.703 290.242 331.843 290.242V290.542ZM333.625 288.584C333.625 287.464 332.903 286.594 331.843 286.594V286.894C332.702 286.894 333.325 287.592 333.325 288.584H333.625ZM331.843 286.594C330.78 286.594 330.077 287.466 330.077 288.584H330.377C330.377 287.59 330.985 286.894 331.843 286.894V286.594ZM330.077 288.584C330.077 289.655 330.781 290.542 331.843 290.542V290.242C330.984 290.242 330.377 289.529 330.377 288.584H330.077Z" fill="#141A1F"/>
<path d="M196.176 318H194.848V309.072L193.136 310.896L192.336 310.08L195.008 307.328H196.176V318ZM200.83 318H199.358L203.662 308.512H197.918V307.328H205.198V308.24L200.83 318ZM208.728 312.432C207.208 312.432 206.152 311.296 206.152 309.824C206.152 308.304 207.208 307.168 208.728 307.168C210.264 307.168 211.304 308.304 211.304 309.824C211.304 311.296 210.264 312.432 208.728 312.432ZM208.584 318H207.704L214.52 307.328H215.416L208.584 318ZM214.296 318.192C212.776 318.192 211.72 317.056 211.72 315.568C211.72 314.08 212.776 312.928 214.296 312.928C215.816 312.928 216.856 314.08 216.856 315.568C216.856 317.056 215.816 318.192 214.296 318.192ZM208.728 311.616C209.688 311.616 210.344 310.832 210.344 309.824C210.344 308.768 209.688 307.984 208.728 307.984C207.784 307.984 207.112 308.768 207.112 309.824C207.112 310.832 207.784 311.616 208.728 311.616ZM214.296 317.376C215.256 317.376 215.912 316.592 215.912 315.568C215.912 314.528 215.256 313.744 214.296 313.744C213.32 313.744 212.664 314.528 212.664 315.568C212.664 316.592 213.32 317.376 214.296 317.376Z" fill="#141A1F"/>
<path d="M196.176 318V318.15H196.326V318H196.176ZM194.848 318H194.698V318.15H194.848V318ZM194.848 309.072H194.998V308.693L194.739 308.969L194.848 309.072ZM193.136 310.896L193.029 311.001L193.138 311.113L193.245 310.999L193.136 310.896ZM192.336 310.08L192.228 309.976L192.126 310.081L192.229 310.185L192.336 310.08ZM195.008 307.328V307.178H194.945L194.9 307.224L195.008 307.328ZM196.176 307.328H196.326V307.178H196.176V307.328ZM196.176 317.85H194.848V318.15H196.176V317.85ZM194.998 318V309.072H194.698V318H194.998ZM194.739 308.969L193.027 310.793L193.245 310.999L194.957 309.175L194.739 308.969ZM193.243 310.791L192.443 309.975L192.229 310.185L193.029 311.001L193.243 310.791ZM192.444 310.184L195.116 307.432L194.9 307.224L192.228 309.976L192.444 310.184ZM195.008 307.478H196.176V307.178H195.008V307.478ZM196.026 307.328V318H196.326V307.328H196.026ZM200.83 318V318.15H200.927L200.967 318.061L200.83 318ZM199.358 318L199.221 317.938L199.125 318.15H199.358V318ZM203.662 308.512L203.798 308.574L203.895 308.362H203.662V308.512ZM197.918 308.512H197.768V308.662H197.918V308.512ZM197.918 307.328V307.178H197.768V307.328H197.918ZM205.198 307.328H205.348V307.178H205.198V307.328ZM205.198 308.24L205.335 308.301L205.348 308.272V308.24H205.198ZM200.83 317.85H199.358V318.15H200.83V317.85ZM199.494 318.062L203.798 308.574L203.525 308.45L199.221 317.938L199.494 318.062ZM203.662 308.362H197.918V308.662H203.662V308.362ZM198.068 308.512V307.328H197.768V308.512H198.068ZM197.918 307.478H205.198V307.178H197.918V307.478ZM205.048 307.328V308.24H205.348V307.328H205.048ZM205.061 308.179L200.693 317.939L200.967 318.061L205.335 308.301L205.061 308.179ZM208.584 318V318.15H208.666L208.711 318.081L208.584 318ZM207.704 318L207.578 317.919L207.43 318.15H207.704V318ZM214.52 307.328V307.178H214.438L214.394 307.247L214.52 307.328ZM215.416 307.328L215.543 307.409L215.69 307.178H215.416V307.328ZM208.728 312.282C207.295 312.282 206.302 311.217 206.302 309.824H206.002C206.002 311.375 207.121 312.582 208.728 312.582V312.282ZM206.302 309.824C206.302 308.381 207.297 307.318 208.728 307.318V307.018C207.119 307.018 206.002 308.227 206.002 309.824H206.302ZM208.728 307.318C210.175 307.318 211.154 308.38 211.154 309.824H211.454C211.454 308.228 210.354 307.018 208.728 307.018V307.318ZM211.154 309.824C211.154 311.218 210.177 312.282 208.728 312.282V312.582C210.352 312.582 211.454 311.374 211.454 309.824H211.154ZM208.584 317.85H207.704V318.15H208.584V317.85ZM207.831 318.081L214.647 307.409L214.394 307.247L207.578 317.919L207.831 318.081ZM214.52 307.478H215.416V307.178H214.52V307.478ZM215.29 307.247L208.458 317.919L208.711 318.081L215.543 307.409L215.29 307.247ZM214.296 318.042C212.864 318.042 211.87 316.978 211.87 315.568H211.57C211.57 317.134 212.689 318.342 214.296 318.342V318.042ZM211.87 315.568C211.87 314.157 212.865 313.078 214.296 313.078V312.778C212.687 312.778 211.57 314.003 211.57 315.568H211.87ZM214.296 313.078C215.726 313.078 216.706 314.155 216.706 315.568H217.006C217.006 314.005 215.906 312.778 214.296 312.778V313.078ZM216.706 315.568C216.706 316.979 215.727 318.042 214.296 318.042V318.342C215.905 318.342 217.006 317.133 217.006 315.568H216.706ZM208.728 311.766C209.788 311.766 210.494 310.897 210.494 309.824H210.194C210.194 310.767 209.588 311.466 208.728 311.466V311.766ZM210.494 309.824C210.494 308.706 209.791 307.834 208.728 307.834V308.134C209.586 308.134 210.194 308.83 210.194 309.824H210.494ZM208.728 307.834C207.683 307.834 206.962 308.705 206.962 309.824H207.262C207.262 308.831 207.886 308.134 208.728 308.134V307.834ZM206.962 309.824C206.962 310.898 207.685 311.766 208.728 311.766V311.466C207.883 311.466 207.262 310.766 207.262 309.824H206.962ZM214.296 317.526C215.357 317.526 216.062 316.656 216.062 315.568H215.762C215.762 316.528 215.155 317.226 214.296 317.226V317.526ZM216.062 315.568C216.062 314.465 215.358 313.594 214.296 313.594V313.894C215.155 313.894 215.762 314.591 215.762 315.568H216.062ZM214.296 313.594C213.22 313.594 212.514 314.464 212.514 315.568H212.814C212.814 314.592 213.421 313.894 214.296 313.894V313.594ZM212.514 315.568C212.514 316.657 213.22 317.526 214.296 317.526V317.226C213.42 317.226 212.814 316.527 212.814 315.568H212.514Z" fill="#141A1F"/>
<path d="M158.656 249.192C156.544 249.192 154.832 248.12 154.832 246.296C154.832 244.872 156.048 243.896 157.376 243.496C156.144 243.144 155.008 242.328 155.008 240.936C155.008 239.016 156.88 238.168 158.656 238.168C160.416 238.168 162.32 239.016 162.32 240.936C162.32 242.328 161.168 243.144 159.936 243.496C161.264 243.896 162.48 244.872 162.48 246.296C162.48 248.104 160.752 249.192 158.656 249.192ZM158.656 242.952C159.312 242.84 160.976 242.408 160.976 241.112C160.976 240.008 159.936 239.352 158.656 239.352C157.36 239.352 156.352 240.008 156.352 241.112C156.352 242.408 158.016 242.84 158.656 242.952ZM158.656 248.008C159.968 248.008 161.136 247.304 161.136 246.152C161.136 244.76 159.312 244.168 158.656 244.088C158 244.168 156.176 244.76 156.176 246.152C156.176 247.304 157.328 248.008 158.656 248.008ZM166.385 243.432C164.865 243.432 163.809 242.296 163.809 240.824C163.809 239.304 164.865 238.168 166.385 238.168C167.921 238.168 168.961 239.304 168.961 240.824C168.961 242.296 167.921 243.432 166.385 243.432ZM166.241 249H165.361L172.177 238.328H173.073L166.241 249ZM171.953 249.192C170.433 249.192 169.377 248.056 169.377 246.568C169.377 245.08 170.433 243.928 171.953 243.928C173.473 243.928 174.513 245.08 174.513 246.568C174.513 248.056 173.473 249.192 171.953 249.192ZM166.385 242.616C167.345 242.616 168.001 241.832 168.001 240.824C168.001 239.768 167.345 238.984 166.385 238.984C165.441 238.984 164.769 239.768 164.769 240.824C164.769 241.832 165.441 242.616 166.385 242.616ZM171.953 248.376C172.913 248.376 173.569 247.592 173.569 246.568C173.569 245.528 172.913 244.744 171.953 244.744C170.977 244.744 170.321 245.528 170.321 246.568C170.321 247.592 170.977 248.376 171.953 248.376Z" fill="#141A1F"/>
<path d="M157.376 243.496L157.419 243.64L157.909 243.492L157.417 243.352L157.376 243.496ZM159.936 243.496L159.895 243.352L159.403 243.492L159.893 243.64L159.936 243.496ZM158.656 242.952L158.63 243.1L158.656 243.104L158.681 243.1L158.656 242.952ZM158.656 244.088L158.674 243.939L158.656 243.937L158.638 243.939L158.656 244.088ZM158.656 249.042C157.623 249.042 156.7 248.78 156.039 248.306C155.383 247.835 154.982 247.155 154.982 246.296H154.682C154.682 247.261 155.137 248.029 155.865 248.55C156.588 249.068 157.577 249.342 158.656 249.342V249.042ZM154.982 246.296C154.982 244.97 156.117 244.032 157.419 243.64L157.333 243.352C155.979 243.76 154.682 244.774 154.682 246.296H154.982ZM157.417 243.352C156.208 243.006 155.158 242.226 155.158 240.936H154.858C154.858 242.43 156.08 243.282 157.335 243.64L157.417 243.352ZM155.158 240.936C155.158 240.033 155.594 239.386 156.248 238.957C156.908 238.526 157.789 238.318 158.656 238.318V238.018C157.747 238.018 156.804 238.234 156.084 238.707C155.358 239.182 154.858 239.919 154.858 240.936H155.158ZM158.656 238.318C159.515 238.318 160.401 238.525 161.066 238.958C161.727 239.387 162.17 240.035 162.17 240.936H162.47C162.47 239.917 161.961 239.181 161.23 238.706C160.503 238.235 159.557 238.018 158.656 238.018V238.318ZM162.17 240.936C162.17 242.225 161.106 243.006 159.895 243.352L159.977 243.64C161.23 243.282 162.47 242.431 162.47 240.936H162.17ZM159.893 243.64C161.195 244.032 162.33 244.97 162.33 246.296H162.63C162.63 244.774 161.333 243.76 159.979 243.352L159.893 243.64ZM162.33 246.296C162.33 247.146 161.926 247.827 161.267 248.3C160.603 248.776 159.68 249.042 158.656 249.042V249.342C159.728 249.342 160.717 249.064 161.441 248.544C162.17 248.021 162.63 247.254 162.63 246.296H162.33ZM158.681 243.1C159.016 243.043 159.616 242.903 160.136 242.606C160.657 242.31 161.126 241.837 161.126 241.112H160.826C160.826 241.683 160.463 242.074 159.988 242.346C159.512 242.617 158.952 242.749 158.631 242.804L158.681 243.1ZM161.126 241.112C161.126 240.507 160.838 240.023 160.384 239.696C159.932 239.372 159.32 239.202 158.656 239.202V239.502C159.272 239.502 159.82 239.66 160.208 239.94C160.594 240.217 160.826 240.613 160.826 241.112H161.126ZM158.656 239.202C157.985 239.202 157.375 239.372 156.93 239.697C156.48 240.025 156.202 240.508 156.202 241.112H156.502C156.502 240.612 156.728 240.215 157.106 239.939C157.489 239.66 158.031 239.502 158.656 239.502V239.202ZM156.202 241.112C156.202 241.837 156.671 242.309 157.189 242.606C157.707 242.903 158.303 243.043 158.63 243.1L158.682 242.804C158.369 242.749 157.813 242.617 157.339 242.346C156.865 242.075 156.502 241.683 156.502 241.112H156.202ZM158.656 248.158C159.337 248.158 159.988 247.976 160.474 247.635C160.963 247.292 161.286 246.785 161.286 246.152H160.986C160.986 246.671 160.725 247.092 160.302 247.389C159.876 247.688 159.287 247.858 158.656 247.858V248.158ZM161.286 246.152C161.286 245.381 160.779 244.845 160.221 244.5C159.662 244.156 159.021 243.981 158.674 243.939L158.638 244.237C158.947 244.275 159.546 244.436 160.063 244.756C160.581 245.075 160.986 245.531 160.986 246.152H161.286ZM158.638 243.939C158.291 243.981 157.65 244.156 157.091 244.5C156.533 244.845 156.026 245.381 156.026 246.152H156.326C156.326 245.531 156.731 245.075 157.249 244.756C157.766 244.436 158.365 244.275 158.674 244.237L158.638 243.939ZM156.026 246.152C156.026 246.785 156.345 247.291 156.832 247.635C157.316 247.976 157.968 248.158 158.656 248.158V247.858C158.016 247.858 157.428 247.688 157.004 247.389C156.583 247.093 156.326 246.671 156.326 246.152H156.026ZM166.241 249V249.15H166.323L166.367 249.081L166.241 249ZM165.361 249L165.234 248.919L165.087 249.15H165.361V249ZM172.177 238.328V238.178H172.094L172.05 238.247L172.177 238.328ZM173.073 238.328L173.199 238.409L173.347 238.178H173.073V238.328ZM166.385 243.282C164.952 243.282 163.958 242.217 163.958 240.824H163.658C163.658 242.375 164.777 243.582 166.385 243.582V243.282ZM163.958 240.824C163.958 239.381 164.953 238.318 166.385 238.318V238.018C164.776 238.018 163.658 239.227 163.658 240.824H163.958ZM166.385 238.318C167.831 238.318 168.811 239.38 168.811 240.824H169.111C169.111 239.228 168.01 238.018 166.385 238.018V238.318ZM168.811 240.824C168.811 242.218 167.833 243.282 166.385 243.282V243.582C168.008 243.582 169.111 242.374 169.111 240.824H168.811ZM166.241 248.85H165.361V249.15H166.241V248.85ZM165.487 249.081L172.303 238.409L172.05 238.247L165.234 248.919L165.487 249.081ZM172.177 238.478H173.073V238.178H172.177V238.478ZM172.946 238.247L166.114 248.919L166.367 249.081L173.199 238.409L172.946 238.247ZM171.952 249.042C170.52 249.042 169.526 247.978 169.526 246.568H169.227C169.227 248.134 170.345 249.342 171.952 249.342V249.042ZM169.526 246.568C169.526 245.157 170.521 244.078 171.952 244.078V243.778C170.344 243.778 169.227 245.003 169.227 246.568H169.526ZM171.952 244.078C173.382 244.078 174.363 245.155 174.363 246.568H174.663C174.663 245.005 173.563 243.778 171.952 243.778V244.078ZM174.363 246.568C174.363 247.979 173.384 249.042 171.952 249.042V249.342C173.561 249.342 174.663 248.133 174.663 246.568H174.363ZM166.385 242.766C167.444 242.766 168.151 241.897 168.151 240.824H167.851C167.851 241.767 167.245 242.466 166.385 242.466V242.766ZM168.151 240.824C168.151 239.706 167.447 238.834 166.385 238.834V239.134C167.242 239.134 167.851 239.83 167.851 240.824H168.151ZM166.385 238.834C165.339 238.834 164.618 239.705 164.618 240.824H164.918C164.918 239.831 165.542 239.134 166.385 239.134V238.834ZM164.618 240.824C164.618 241.898 165.341 242.766 166.385 242.766V242.466C165.54 242.466 164.918 241.766 164.918 240.824H164.618ZM171.952 248.526C173.013 248.526 173.719 247.656 173.719 246.568H173.419C173.419 247.528 172.812 248.226 171.952 248.226V248.526ZM173.719 246.568C173.719 245.465 173.014 244.594 171.952 244.594V244.894C172.811 244.894 173.419 245.591 173.419 246.568H173.719ZM171.952 244.594C170.876 244.594 170.17 245.464 170.17 246.568H170.471C170.471 245.592 171.077 244.894 171.952 244.894V244.594ZM170.17 246.568C170.17 247.657 170.877 248.526 171.952 248.526V248.226C171.076 248.226 170.471 247.527 170.471 246.568H170.17Z" fill="#141A1F"/>
<path d="M221.192 187H213.864V185.928C217.704 182.92 219.8 181.144 219.8 179.304C219.8 177.928 218.664 177.352 217.56 177.352C216.28 177.352 215.288 177.896 214.664 178.696L213.848 177.848C214.664 176.76 216.056 176.168 217.56 176.168C219.336 176.168 221.144 177.176 221.144 179.304C221.144 181.48 218.936 183.464 215.96 185.816H221.192V187ZM226.662 187.192C224.854 187.192 223.526 186.392 222.87 185.432L223.654 184.6C224.278 185.432 225.366 186.008 226.63 186.008C228.182 186.008 229.126 185.224 229.126 184.008C229.126 182.68 228.038 182.12 226.47 182.12C226.022 182.12 225.526 182.12 225.366 182.136V180.92C225.542 180.936 226.038 180.936 226.47 180.936C227.814 180.936 228.95 180.408 228.95 179.176C228.95 177.992 227.862 177.352 226.566 177.352C225.398 177.352 224.534 177.8 223.75 178.648L223.014 177.816C223.782 176.872 225.014 176.168 226.678 176.168C228.726 176.168 230.278 177.208 230.278 179C230.278 180.552 228.982 181.32 227.99 181.48C228.95 181.576 230.454 182.392 230.454 184.12C230.454 185.896 229.014 187.192 226.662 187.192ZM234.385 181.432C232.865 181.432 231.809 180.296 231.809 178.824C231.809 177.304 232.865 176.168 234.385 176.168C235.921 176.168 236.961 177.304 236.961 178.824C236.961 180.296 235.921 181.432 234.385 181.432ZM234.241 187H233.361L240.177 176.328H241.073L234.241 187ZM239.953 187.192C238.433 187.192 237.377 186.056 237.377 184.568C237.377 183.08 238.433 181.928 239.953 181.928C241.473 181.928 242.513 183.08 242.513 184.568C242.513 186.056 241.473 187.192 239.953 187.192ZM234.385 180.616C235.345 180.616 236.001 179.832 236.001 178.824C236.001 177.768 235.345 176.984 234.385 176.984C233.441 176.984 232.769 177.768 232.769 178.824C232.769 179.832 233.441 180.616 234.385 180.616ZM239.953 186.376C240.913 186.376 241.569 185.592 241.569 184.568C241.569 183.528 240.913 182.744 239.953 182.744C238.977 182.744 238.321 183.528 238.321 184.568C238.321 185.592 238.977 186.376 239.953 186.376Z" fill="#141A1F"/>
<path d="M221.192 187V187.15H221.342V187H221.192ZM213.864 187H213.714V187.15H213.864V187ZM213.864 185.928L213.772 185.81L213.714 185.855V185.928H213.864ZM214.664 178.696L214.556 178.8L214.676 178.925L214.782 178.788L214.664 178.696ZM213.848 177.848L213.728 177.758L213.651 177.86L213.74 177.952L213.848 177.848ZM215.96 185.816L215.867 185.698L215.528 185.966H215.96V185.816ZM221.192 185.816H221.342V185.666H221.192V185.816ZM221.192 186.85H213.864V187.15H221.192V186.85ZM214.014 187V185.928H213.714V187H214.014ZM213.956 186.046C215.875 184.544 217.368 183.341 218.38 182.282C219.391 181.224 219.95 180.284 219.95 179.304H219.65C219.65 180.164 219.161 181.032 218.164 182.074C217.168 183.115 215.693 184.304 213.772 185.81L213.956 186.046ZM219.95 179.304C219.95 178.569 219.644 178.036 219.184 177.692C218.73 177.352 218.135 177.202 217.56 177.202V177.502C218.089 177.502 218.614 177.64 219.004 177.932C219.388 178.22 219.65 178.663 219.65 179.304H219.95ZM217.56 177.202C216.234 177.202 215.198 177.767 214.546 178.604L214.782 178.788C215.378 178.025 216.326 177.502 217.56 177.502V177.202ZM214.772 178.592L213.956 177.744L213.74 177.952L214.556 178.8L214.772 178.592ZM213.968 177.938C214.75 176.895 216.093 176.318 217.56 176.318V176.018C216.019 176.018 214.578 176.625 213.728 177.758L213.968 177.938ZM217.56 176.318C218.422 176.318 219.284 176.563 219.927 177.057C220.565 177.547 220.994 178.288 220.994 179.304H221.294C221.294 178.192 220.819 177.365 220.109 176.819C219.404 176.277 218.474 176.018 217.56 176.018V176.318ZM220.994 179.304C220.994 180.339 220.469 181.345 219.555 182.396C218.641 183.446 217.355 184.522 215.867 185.698L216.053 185.934C217.541 184.758 218.847 183.666 219.781 182.592C220.715 181.519 221.294 180.445 221.294 179.304H220.994ZM215.96 185.966H221.192V185.666H215.96V185.966ZM221.042 185.816V187H221.342V185.816H221.042ZM222.87 185.432L222.761 185.329L222.678 185.417L222.746 185.517L222.87 185.432ZM223.654 184.6L223.774 184.51L223.667 184.367L223.545 184.497L223.654 184.6ZM225.366 182.136H225.216V182.302L225.381 182.285L225.366 182.136ZM225.366 180.92L225.38 180.771L225.216 180.756V180.92H225.366ZM223.75 178.648L223.638 178.747L223.748 178.872L223.86 178.75L223.75 178.648ZM223.014 177.816L222.898 177.721L222.818 177.82L222.902 177.915L223.014 177.816ZM227.99 181.48L227.966 181.332L227.975 181.629L227.99 181.48ZM226.662 187.042C224.899 187.042 223.619 186.262 222.994 185.347L222.746 185.517C223.433 186.522 224.81 187.342 226.662 187.342V187.042ZM222.979 185.535L223.763 184.703L223.545 184.497L222.761 185.329L222.979 185.535ZM223.534 184.69C224.188 185.561 225.321 186.158 226.63 186.158V185.858C225.411 185.858 224.369 185.303 223.774 184.51L223.534 184.69ZM226.63 186.158C227.43 186.158 228.091 185.956 228.555 185.581C229.022 185.202 229.276 184.658 229.276 184.008H228.976C228.976 184.574 228.758 185.03 228.366 185.347C227.97 185.668 227.383 185.858 226.63 185.858V186.158ZM229.276 184.008C229.276 183.296 228.981 182.775 228.468 182.44C227.966 182.112 227.268 181.97 226.47 181.97V182.27C227.24 182.27 227.871 182.408 228.304 182.692C228.728 182.969 228.976 183.392 228.976 184.008H229.276ZM226.47 181.97C226.028 181.97 225.521 181.97 225.351 181.987L225.381 182.285C225.531 182.27 226.016 182.27 226.47 182.27V181.97ZM225.516 182.136V180.92H225.216V182.136H225.516ZM225.353 181.069C225.537 181.086 226.044 181.086 226.47 181.086V180.786C226.033 180.786 225.547 180.786 225.38 180.771L225.353 181.069ZM226.47 181.086C227.158 181.086 227.81 180.951 228.294 180.645C228.787 180.333 229.1 179.847 229.1 179.176H228.8C228.8 179.737 228.546 180.131 228.134 180.391C227.715 180.657 227.126 180.786 226.47 180.786V181.086ZM229.1 179.176C229.1 178.531 228.801 178.031 228.331 177.698C227.865 177.367 227.237 177.202 226.566 177.202V177.502C227.192 177.502 227.755 177.657 228.157 177.942C228.555 178.225 228.8 178.637 228.8 179.176H229.1ZM226.566 177.202C225.35 177.202 224.448 177.672 223.64 178.546L223.86 178.75C224.621 177.928 225.446 177.502 226.566 177.502V177.202ZM223.863 178.549L223.127 177.717L222.902 177.915L223.638 178.747L223.863 178.549ZM223.131 177.911C223.871 177.001 225.06 176.318 226.678 176.318V176.018C224.968 176.018 223.694 176.743 222.898 177.721L223.131 177.911ZM226.678 176.318C227.679 176.318 228.545 176.572 229.156 177.032C229.764 177.488 230.128 178.153 230.128 179H230.428C230.428 178.055 230.017 177.304 229.336 176.792C228.66 176.284 227.726 176.018 226.678 176.018V176.318ZM230.128 179C230.128 180.447 228.922 181.178 227.966 181.332L228.014 181.628C229.043 181.462 230.428 180.657 230.428 179H230.128ZM227.975 181.629C228.426 181.674 229.012 181.891 229.484 182.301C229.951 182.708 230.304 183.305 230.304 184.12H230.604C230.604 183.207 230.205 182.532 229.681 182.075C229.16 181.621 228.515 181.382 228.005 181.331L227.975 181.629ZM230.304 184.12C230.304 184.964 229.963 185.69 229.344 186.207C228.723 186.725 227.812 187.042 226.662 187.042V187.342C227.865 187.342 228.85 187.011 229.536 186.437C230.225 185.862 230.604 185.052 230.604 184.12H230.304ZM234.24 187V187.15H234.323L234.367 187.081L234.24 187ZM233.361 187L233.234 186.919L233.087 187.15H233.361V187ZM240.177 176.328V176.178H240.094L240.05 176.247L240.177 176.328ZM241.073 176.328L241.199 176.409L241.347 176.178H241.073V176.328ZM234.385 181.282C232.952 181.282 231.958 180.217 231.958 178.824H231.659C231.659 180.375 232.777 181.582 234.385 181.582V181.282ZM231.958 178.824C231.958 177.381 232.953 176.318 234.385 176.318V176.018C232.776 176.018 231.659 177.227 231.659 178.824H231.958ZM234.385 176.318C235.831 176.318 236.811 177.38 236.811 178.824H237.111C237.111 177.228 236.01 176.018 234.385 176.018V176.318ZM236.811 178.824C236.811 180.218 235.833 181.282 234.385 181.282V181.582C236.008 181.582 237.111 180.374 237.111 178.824H236.811ZM234.24 186.85H233.361V187.15H234.24V186.85ZM233.487 187.081L240.303 176.409L240.05 176.247L233.234 186.919L233.487 187.081ZM240.177 176.478H241.073V176.178H240.177V176.478ZM240.946 176.247L234.114 186.919L234.367 187.081L241.199 176.409L240.946 176.247ZM239.952 187.042C238.52 187.042 237.527 185.978 237.527 184.568H237.226C237.226 186.134 238.345 187.342 239.952 187.342V187.042ZM237.527 184.568C237.527 183.157 238.521 182.078 239.952 182.078V181.778C238.344 181.778 237.226 183.003 237.226 184.568H237.527ZM239.952 182.078C241.382 182.078 242.363 183.155 242.363 184.568H242.663C242.663 183.005 241.563 181.778 239.952 181.778V182.078ZM242.363 184.568C242.363 185.979 241.384 187.042 239.952 187.042V187.342C241.561 187.342 242.663 186.133 242.663 184.568H242.363ZM234.385 180.766C235.444 180.766 236.15 179.897 236.15 178.824H235.851C235.851 179.767 235.245 180.466 234.385 180.466V180.766ZM236.15 178.824C236.15 177.706 235.447 176.834 234.385 176.834V177.134C235.242 177.134 235.851 177.83 235.851 178.824H236.15ZM234.385 176.834C233.339 176.834 232.618 177.705 232.618 178.824H232.919C232.919 177.831 233.542 177.134 234.385 177.134V176.834ZM232.618 178.824C232.618 179.898 233.341 180.766 234.385 180.766V180.466C233.54 180.466 232.919 179.766 232.919 178.824H232.618ZM239.952 186.526C241.013 186.526 241.719 185.656 241.719 184.568H241.419C241.419 185.528 240.812 186.226 239.952 186.226V186.526ZM241.719 184.568C241.719 183.465 241.014 182.594 239.952 182.594V182.894C240.811 182.894 241.419 183.591 241.419 184.568H241.719ZM239.952 182.594C238.876 182.594 238.17 183.464 238.17 184.568H238.471C238.471 183.592 239.077 182.894 239.952 182.894V182.594ZM238.17 184.568C238.17 185.657 238.877 186.526 239.952 186.526V186.226C239.076 186.226 238.471 185.527 238.471 184.568H238.17Z" fill="#141A1F"/>
</svg>
